  0
SECTION
  2
HEADER
  9
$ACADVER
  1
AC1014
  9
$ACADMAINTVER
 70
     9
  9
$DWGCODEPAGE
  3
UNDEFINED
  9
$INSBASE
 10
0.0
 20
0.0
 30
0.0
  9
$EXTMIN
 10
1.000000000000000E+20
 20
1.000000000000000E+20
 30
1.000000000000000E+20
  9
$EXTMAX
 10
-1.000000000000000E+20
 20
-1.000000000000000E+20
 30
-1.000000000000000E+20
  9
$LIMMIN
 10
0.0
 20
0.0
  9
$LIMMAX
 10
12.0
 20
9.0
  9
$ORTHOMODE
 70
     0
  9
$REGENMODE
 70
     1
  9
$FILLMODE
 70
     1
  9
$QTEXTMODE
 70
     0
  9
$MIRRTEXT
 70
     1
  9
$DRAGMODE
 70
     2
  9
$LTSCALE
 40
1.0
  9
$OSMODE
 70
    37
  9
$ATTMODE
 70
     1
  9
$TEXTSIZE
 40
0.2
  9
$TRACEWID
 40
0.05
  9
$TEXTSTYLE
  7
STANDARD
  9
$CLAYER
  8
0
  9
$CELTYPE
  6
BYLAYER
  9
$CECOLOR
 62
   256
  9
$CELTSCALE
 40
1.0
  9
$DELOBJ
 70
     1
  9
$DISPSILH
 70
     0
  9
$DIMSCALE
 40
1.0
  9
$DIMASZ
 40
0.18
  9
$DIMEXO
 40
0.0625
  9
$DIMDLI
 40
0.38
  9
$DIMRND
 40
0.0
  9
$DIMDLE
 40
0.0
  9
$DIMEXE
 40
0.18
  9
$DIMTP
 40
0.0
  9
$DIMTM
 40
0.0
  9
$DIMTXT
 40
0.18
  9
$DIMCEN
 40
0.09
  9
$DIMTSZ
 40
0.0
  9
$DIMTOL
 70
     0
  9
$DIMLIM
 70
     0
  9
$DIMTIH
 70
     1
  9
$DIMTOH
 70
     1
  9
$DIMSE1
 70
     0
  9
$DIMSE2
 70
     0
  9
$DIMTAD
 70
     0
  9
$DIMZIN
 70
     0
  9
$DIMBLK
  1

  9
$DIMASO
 70
     1
  9
$DIMSHO
 70
     1
  9
$DIMPOST
  1

  9
$DIMAPOST
  1

  9
$DIMALT
 70
     0
  9
$DIMALTD
 70
     2
  9
$DIMALTF
 40
25.4
  9
$DIMLFAC
 40
1.0
  9
$DIMTOFL
 70
     0
  9
$DIMTVP
 40
0.0
  9
$DIMTIX
 70
     0
  9
$DIMSOXD
 70
     0
  9
$DIMSAH
 70
     0
  9
$DIMBLK1
  1

  9
$DIMBLK2
  1

  9
$DIMSTYLE
  2
STANDARD
  9
$DIMCLRD
 70
     0
  9
$DIMCLRE
 70
     0
  9
$DIMCLRT
 70
     0
  9
$DIMTFAC
 40
1.0
  9
$DIMGAP
 40
0.09
  9
$DIMJUST
 70
     0
  9
$DIMSD1
 70
     0
  9
$DIMSD2
 70
     0
  9
$DIMTOLJ
 70
     1
  9
$DIMTZIN
 70
     0
  9
$DIMALTZ
 70
     0
  9
$DIMALTTZ
 70
     0
  9
$DIMFIT
 70
     3
  9
$DIMUPT
 70
     0
  9
$DIMUNIT
 70
     2
  9
$DIMDEC
 70
     4
  9
$DIMTDEC
 70
     4
  9
$DIMALTU
 70
     2
  9
$DIMALTTD
 70
     2
  9
$DIMTXSTY
  7
STANDARD
  9
$DIMAUNIT
 70
     0
  9
$LUNITS
 70
     2
  9
$LUPREC
 70
     4
  9
$SKETCHINC
 40
0.1
  9
$FILLETRAD
 40
0.5
  9
$AUNITS
 70
     0
  9
$AUPREC
 70
     0
  9
$MENU
  1
.
  9
$ELEVATION
 40
0.0
  9
$PELEVATION
 40
0.0
  9
$THICKNESS
 40
0.0
  9
$LIMCHECK
 70
     0
  9
$CHAMFERA
 40
0.5
  9
$CHAMFERB
 40
0.5
  9
$CHAMFERC
 40
1.0
  9
$CHAMFERD
 40
0.0
  9
$SKPOLY
 70
     0
  9
$TDCREATE
 40
2456896.829293982
  9
$TDUPDATE
 40
2456896.829293993
  9
$TDINDWG
 40
0.0000000116
  9
$TDUSRTIMER
 40
0.0000000116
  9
$USRTIMER
 70
     1
  9
$ANGBASE
 50
0.0
  9
$ANGDIR
 70
     0
  9
$PDMODE
 70
     0
  9
$PDSIZE
 40
0.0
  9
$PLINEWID
 40
0.0
  9
$COORDS
 70
     1
  9
$SPLFRAME
 70
     0
  9
$SPLINETYPE
 70
     6
  9
$SPLINESEGS
 70
     8
  9
$ATTDIA
 70
     0
  9
$ATTREQ
 70
     1
  9
$HANDLING
 70
     1
  9
$HANDSEED
  5
253
  9
$SURFTAB1
 70
     6
  9
$SURFTAB2
 70
     6
  9
$SURFTYPE
 70
     6
  9
$SURFU
 70
     6
  9
$SURFV
 70
     6
  9
$UCSNAME
  2

  9
$UCSORG
 10
0.0
 20
0.0
 30
0.0
  9
$UCSXDIR
 10
1.0
 20
0.0
 30
0.0
  9
$UCSYDIR
 10
0.0
 20
1.0
 30
0.0
  9
$PUCSNAME
  2

  9
$PUCSORG
 10
0.0
 20
0.0
 30
0.0
  9
$PUCSXDIR
 10
1.0
 20
0.0
 30
0.0
  9
$PUCSYDIR
 10
0.0
 20
1.0
 30
0.0
  9
$USERI1
 70
     0
  9
$USERI2
 70
     0
  9
$USERI3
 70
     0
  9
$USERI4
 70
     0
  9
$USERI5
 70
     0
  9
$USERR1
 40
0.0
  9
$USERR2
 40
0.0
  9
$USERR3
 40
0.0
  9
$USERR4
 40
0.0
  9
$USERR5
 40
0.0
  9
$WORLDVIEW
 70
     1
  9
$SHADEDGE
 70
     3
  9
$SHADEDIF
 70
    70
  9
$TILEMODE
 70
     1
  9
$MAXACTVP
 70
    64
  9
$PINSBASE
 10
0.0
 20
0.0
 30
0.0
  9
$PLIMCHECK
 70
     0
  9
$PEXTMIN
 10
1.000000000000000E+20
 20
1.000000000000000E+20
 30
1.000000000000000E+20
  9
$PEXTMAX
 10
-1.000000000000000E+20
 20
-1.000000000000000E+20
 30
-1.000000000000000E+20
  9
$PLIMMIN
 10
0.0
 20
0.0
  9
$PLIMMAX
 10
12.0
 20
9.0
  9
$UNITMODE
 70
     0
  9
$VISRETAIN
 70
     1
  9
$PLINEGEN
 70
     0
  9
$PSLTSCALE
 70
     1
  9
$TREEDEPTH
 70
  3020
  9
$PICKSTYLE
 70
     1
  9
$CMLSTYLE
  2
STANDARD
  9
$CMLJUST
 70
     0
  9
$CMLSCALE
 40
1.0
  9
$PROXYGRAPHICS
 70
     1
  9
$MEASUREMENT
 70
     0
  0
ENDSEC
  0
SECTION
  2
CLASSES
  0
CLASS
  1
ACDBDICTIONARYWDFLT
  2
AcDbDictionaryWithDefault
  3
ObjectDBX Classes
 90
        0
280
     0
281
     0
  0
CLASS
  1
VISUALSTYLE
  2
AcDbVisualStyle
  3
ObjectDBX Classes
 90
     4095
280
     0
281
     0
  0
CLASS
  1
MATERIAL
  2
AcDbMaterial
  3
ObjectDBX Classes
 90
     1153
280
     0
281
     0
  0
CLASS
  1
DICTIONARYVAR
  2
AcDbDictionaryVar
  3
ObjectDBX Classes
 90
        0
280
     0
281
     0
  0
CLASS
  1
XRECORD
  2
AcDbXrecord
  3
AutoCAD 2000
 90
        0
280
     0
281
     0
  0
CLASS
  1
LWPOLYLINE
  2
AcDbPolyline
  3
AutoCAD 2000
 90
        0
280
     0
281
     1
  0
CLASS
  1
HATCH
  2
AcDbHatch
  3
AutoCAD 2000
 90
        0
280
     0
281
     1
  0
CLASS
  1
ACDBPLACEHOLDER
  2
AcDbPlaceHolder
  3
ObjectDBX Classes
 90
        0
280
     0
281
     0
  0
CLASS
  1
LAYOUT
  2
AcDbLayout
  3
ObjectDBX Classes
 90
        0
280
     0
281
     0
  0
ENDSEC
  0
SECTION
  2
TABLES
  0
TABLE
  2
VPORT
  5
8
330
0
100
AcDbSymbolTable
 70
     1
  0
VPORT
  5
29
330
8
100
AcDbSymbolTableRecord
100
AcDbViewportTableRecord
  2
*ACTIVE
 70
     0
 10
0.0
 20
0.0
 11
1.0
 21
1.0
 12
0.0
 22
0.0
 13
0.0
 23
0.0
 14
0.5
 24
0.5
 15
0.5
 25
0.5
 16
0.0
 26
0.0
 36
1.0
 17
0.0
 27
0.0
 37
-1000.0
 40
158.1566315574841
 41
1.824650571791613
 42
50.0
 43
250.8043753034951
 44
362.533375173457
 50
0.0
 51
0.0
 71
     0
 72
   100
 73
     1
 74
     3
 75
     0
 76
     0
 77
     0
 78
     0
  0
ENDTAB
  0
TABLE
  2
LTYPE
  5
5
330
0
100
AcDbSymbolTable
 70
     1
  0
LTYPE
  5
14
330
5
100
AcDbSymbolTableRecord
100
AcDbLinetypeTableRecord
  2
BYBLOCK
 70
     0
  3

 72
    65
 73
     0
 40
0.0
  0
LTYPE
  5
15
330
5
100
AcDbSymbolTableRecord
100
AcDbLinetypeTableRecord
  2
BYLAYER
 70
     0
  3

 72
    65
 73
     0
 40
0.0
  0
LTYPE
  5
16
330
5
100
AcDbSymbolTableRecord
100
AcDbLinetypeTableRecord
  2
CONTINUOUS
 70
     0
  3
Solid line
 72
    65
 73
     0
 40
0.0
  0
ENDTAB
  0
TABLE
  2
LAYER
  5
2
330
0
100
AcDbSymbolTable
 70
     3
  0
LAYER
  5
10
330
2
100
AcDbSymbolTableRecord
100
AcDbLayerTableRecord
  2
0
 70
     0
 62
     7
  6
CONTINUOUS
  0
LAYER
  5
3F
330
2
100
AcDbSymbolTableRecord
100
AcDbLayerTableRecord
  2
PROFILEEDGES
 70
     0
 62
     7
  6
CONTINUOUS
  0
LAYER
  5
40
330
2
100
AcDbSymbolTableRecord
100
AcDbLayerTableRecord
  2
SECTIONCUTEDGES
 70
     0
 62
     7
  6
CONTINUOUS
  0
ENDTAB
  0
TABLE
  2
STYLE
  5
3
330
0
100
AcDbSymbolTable
 70
     1
  0
STYLE
  5
11
330
3
100
AcDbSymbolTableRecord
100
AcDbTextStyleTableRecord
  2
STANDARD
 70
     0
 40
0.0
 41
1.0
 50
0.0
 71
     0
 42
0.2
  3
txt
  4

  0
ENDTAB
  0
TABLE
  2
VIEW
  5
6
330
0
100
AcDbSymbolTable
 70
     0
  0
ENDTAB
  0
TABLE
  2
UCS
  5
7
330
0
100
AcDbSymbolTable
 70
     0
  0
ENDTAB
  0
TABLE
  2
APPID
  5
9
330
0
100
AcDbSymbolTable
 70
     1
  0
APPID
  5
12
330
9
100
AcDbSymbolTableRecord
100
AcDbRegAppTableRecord
  2
ACAD
 70
     0
  0
ENDTAB
  0
TABLE
  2
DIMSTYLE
  5
A
330
0
100
AcDbSymbolTable
 70
     1
  0
DIMSTYLE
105
27
330
A
100
AcDbSymbolTableRecord
100
AcDbDimStyleTableRecord
  2
STANDARD
 70
     0
  3

  4

  5

  6

  7

 40
1.0
 41
0.18
 42
0.0625
 43
0.38
 44
0.18
 45
0.0
 46
0.0
 47
0.0
 48
0.0
140
0.18
141
0.09
142
0.0
143
25.4
144
1.0
145
0.0
146
1.0
147
0.09
 71
     0
 72
     0
 73
     1
 74
     1
 75
     0
 76
     0
 77
     0
 78
     0
170
     0
171
     2
172
     0
173
     0
174
     0
175
     0
176
     0
177
     0
178
     0
270
     2
271
     4
272
     4
273
     2
274
     2
340
11
275
     0
280
     0
281
     0
282
     0
283
     1
284
     0
285
     0
286
     0
287
     3
288
     0
  0
ENDTAB
  0
TABLE
  2
BLOCK_RECORD
  5
1
330
0
100
AcDbSymbolTable
 70
     1
  0
BLOCK_RECORD
  5
1F
330
1
100
AcDbSymbolTableRecord
100
AcDbBlockTableRecord
  2
*MODEL_SPACE
  0
BLOCK_RECORD
  5
1B
330
1
100
AcDbSymbolTableRecord
100
AcDbBlockTableRecord
  2
*PAPER_SPACE
  0
ENDTAB
  0
ENDSEC
  0
SECTION
  2
BLOCKS
  0
BLOCK
  5
20
330
1F
100
AcDbEntity
  8
0
100
AcDbBlockBegin
  2
*MODEL_SPACE
 70
     0
 10
0.0
 20
0.0
 30
0.0
  3
*MODEL_SPACE
  1

  0
ENDBLK
  5
21
330
1F
100
AcDbEntity
  8
0
100
AcDbBlockEnd
  0
BLOCK
  5
1C
330
1B
100
AcDbEntity
 67
     1
  8
0
100
AcDbBlockBegin
  2
*PAPER_SPACE
 70
     0
 10
0.0
 20
0.0
 30
0.0
  3
*PAPER_SPACE
  1

  0
ENDBLK
  5
1D
330
1B
100
AcDbEntity
 67
     1
  8
0
100
AcDbBlockEnd
  0
ENDSEC
  0
SECTION
  2
ENTITIES
  0
LINE
  5
41
330
1F
100
AcDbEntity
  8
0
100
AcDbLine
 10
25.38643868870082
 20
-18.63063301502461
 30
0.0
 11
26.91188890317897
 21
20.64706702806529
 31
0.0
  0
LINE
  5
42
330
1F
100
AcDbEntity
  8
0
100
AcDbLine
 10
26.91188890317897
 20
20.64706702806529
 30
0.0
 11
-18.79436141164059
 21
22.65781944849387
 31
0.0
  0
LINE
  5
43
330
1F
100
AcDbEntity
  8
0
100
AcDbLine
 10
-18.79436141164059
 20
22.65781944849387
 30
0.0
 11
-20.69744967825697
 21
-16.58645149916339
 31
0.0
  0
LINE
  5
44
330
1F
100
AcDbEntity
  8
0
100
AcDbLine
 10
-20.69744967825697
 20
-16.58645149916339
 30
0.0
 11
25.38643868870082
 21
-18.63063301502461
 31
0.0
  0
LINE
  5
45
330
1F
100
AcDbEntity
  8
0
100
AcDbLine
 10
-11.41496871748047
 20
20.25140643024473
 30
0.0
 11
-10.86883170379822
 21
20.15527601054209
 31
0.0
  0
LINE
  5
46
330
1F
100
AcDbEntity
  8
0
100
AcDbLine
 10
-11.96785046165775
 20
20.2036470399333
 30
0.0
 11
-11.41496871748047
 21
20.25140643024473
 31
0.0
  0
LINE
  5
47
330
1F
100
AcDbEntity
  8
0
100
AcDbLine
 10
-12.48984721281164
 20
20.01524416486859
 30
0.0
 11
-11.96785046165775
 21
20.2036470399333
 31
0.0
  0
LINE
  5
48
330
1F
100
AcDbEntity
  8
0
100
AcDbLine
 10
-12.94542338970634
 20
19.69900589154247
 30
0.0
 11
-12.48984721281164
 21
20.01524416486859
 31
0.0
  0
LINE
  5
49
330
1F
100
AcDbEntity
  8
0
100
AcDbLine
 10
-13.303549167027
 20
19.2764375819023
 30
0.0
 11
-12.94542338970634
 21
19.69900589154247
 31
0.0
  0
LINE
  5
4A
330
1F
100
AcDbEntity
  8
0
100
AcDbLine
 10
-13.53981056472583
 20
18.77628856538657
 30
0.0
 11
-13.303549167027
 21
19.2764375819023
 31
0.0
  0
LINE
  5
4B
330
1F
100
AcDbEntity
  8
0
100
AcDbLine
 10
-13.63807543296353
 20
18.23260577523513
 30
0.0
 11
-13.53981056472583
 21
18.77628856538657
 31
0.0
  0
LINE
  5
4C
330
1F
100
AcDbEntity
  8
0
100
AcDbLine
 10
-13.59160121238929
 20
17.68242352978693
 30
0.0
 11
-13.63807543296353
 21
18.23260577523513
 31
0.0
  0
LINE
  5
4D
330
1F
100
AcDbEntity
  8
0
100
AcDbLine
 10
-13.4035067395934
 20
17.16324420857822
 30
0.0
 11
-13.59160121238929
 21
17.68242352978693
 31
0.0
  0
LINE
  5
4E
330
1F
100
AcDbEntity
  8
0
100
AcDbLine
 10
-12.66238051035975
 20
16.35503271366716
 30
0.0
 11
-13.08657265013619
 21
16.71048029754754
 31
0.0
  0
LINE
  5
4F
330
1F
100
AcDbEntity
  8
0
100
AcDbLine
 10
-12.15984662876516
 20
16.12117268180446
 30
0.0
 11
-12.66238051035975
 21
16.35503271366716
 31
0.0
  0
LINE
  5
50
330
1F
100
AcDbEntity
  8
0
100
AcDbLine
 10
-11.61324923603916
 20
16.02487480192216
 30
0.0
 11
-12.15984662876516
 21
16.12117268180446
 31
0.0
  0
LINE
  5
51
330
1F
100
AcDbEntity
  8
0
100
AcDbLine
 10
-11.05988406941816
 20
16.07271836562199
 30
0.0
 11
-11.61324923603916
 21
16.02487480192216
 31
0.0
  0
LINE
  5
52
330
1F
100
AcDbEntity
  8
0
100
AcDbLine
 10
-10.53751038510642
 20
16.26143449344007
 30
0.0
 11
-11.05988406941816
 21
16.07271836562199
 31
0.0
  0
LINE
  5
53
330
1F
100
AcDbEntity
  8
0
100
AcDbLine
 10
-10.0817647632811
 20
16.57813116302853
 30
0.0
 11
-10.53751038510642
 21
16.26143449344007
 31
0.0
  0
LINE
  5
54
330
1F
100
AcDbEntity
  8
0
100
AcDbLine
 10
-9.723722431863123
 20
17.00118018550958
 30
0.0
 11
-10.0817647632811
 21
16.57813116302853
 31
0.0
  0
LINE
  5
55
330
1F
100
AcDbEntity
  8
0
100
AcDbLine
 10
-9.487775011605594
 20
17.50170342483888
 30
0.0
 11
-9.723722431863123
 21
17.00118018550958
 31
0.0
  0
LINE
  5
56
330
1F
100
AcDbEntity
  8
0
100
AcDbLine
 10
-9.389970522339826
 20
18.04555367510964
 30
0.0
 11
-9.487775011605594
 21
17.50170342483888
 31
0.0
  0
LINE
  5
57
330
1F
100
AcDbEntity
  8
0
100
AcDbLine
 10
-9.625399571206145
 20
19.11451781574875
 30
0.0
 11
-9.436928165269189
 21
18.59565174720124
 31
0.0
  0
LINE
  5
58
330
1F
100
AcDbEntity
  8
0
100
AcDbLine
 10
-9.942503105665777
 20
19.56682333057745
 30
0.0
 11
-9.625399571206145
 21
19.11451781574875
 31
0.0
  0
LINE
  5
59
330
1F
100
AcDbEntity
  8
0
100
AcDbLine
 10
-10.36661179962815
 20
19.92179020158513
 30
0.0
 11
-9.942503105665777
 21
19.56682333057745
 31
0.0
  0
LINE
  5
5A
330
1F
100
AcDbEntity
  8
0
100
AcDbLine
 10
-10.86883170379822
 20
20.15527601054209
 30
0.0
 11
-10.36661179962815
 21
19.92179020158513
 31
0.0
  0
LINE
  5
5B
330
1F
100
AcDbEntity
  8
0
100
AcDbLine
 10
20.1565846562026
 20
0.1269337738263019
 30
0.0
 11
20.06254467286244
 21
-0.4167790244541961
 31
0.0
  0
LINE
  5
5C
330
1F
100
AcDbEntity
  8
0
100
AcDbLine
 10
19.59683606728129
 20
1.647821600863612
 30
0.0
 11
19.91547215949259
 21
1.195629203023653
 31
0.0
  0
LINE
  5
5D
330
1F
100
AcDbEntity
  8
0
100
AcDbLine
 10
19.17222735763535
 20
2.002699940476209
 30
0.0
 11
19.59683606728129
 21
1.647821600863612
 31
0.0
  0
LINE
  5
5E
330
1F
100
AcDbEntity
  8
0
100
AcDbLine
 10
18.67057382567892
 20
2.236127632449616
 30
0.0
 11
19.17222735763535
 21
2.002699940476209
 31
0.0
  0
LINE
  5
5F
330
1F
100
AcDbEntity
  8
0
100
AcDbLine
 10
18.12603099516613
 20
2.332234151097601
 30
0.0
 11
18.67057382567892
 21
2.236127632449616
 31
0.0
  0
LINE
  5
60
330
1F
100
AcDbEntity
  8
0
100
AcDbLine
 10
17.57566286885604
 20
2.284486633324575
 30
0.0
 11
18.12603099516613
 21
2.332234151097601
 31
0.0
  0
LINE
  5
61
330
1F
100
AcDbEntity
  8
0
100
AcDbLine
 10
17.28256129815214
 20
2.178059484559732
 30
0.0
 11
17.57566286885604
 21
2.284486633324575
 31
0.0
  0
LINE
  5
62
330
1F
100
AcDbEntity
  8
0
100
AcDbLine
 10
19.91547215949259
 20
1.195629203023653
 30
0.0
 11
20.10640464186631
 21
0.6768933234766192
 31
0.0
  0
LINE
  5
63
330
1F
100
AcDbEntity
  8
0
100
AcDbLine
 10
20.10640464186631
 20
0.6768933234766192
 30
0.0
 11
20.1565846562026
 21
0.1269337738263019
 31
0.0
  0
LINE
  5
64
330
1F
100
AcDbEntity
  8
0
100
AcDbLine
 10
20.06254467286244
 20
-0.4167790244541961
 30
0.0
 11
19.8306476136605
 21
-0.9171753203981678
 31
0.0
  0
LINE
  5
65
330
1F
100
AcDbEntity
  8
0
100
AcDbLine
 10
19.8306476136605
 20
-0.9171753203981678
 30
0.0
 11
19.7003557324524
 21
-1.072849370860365
 31
0.0
  0
LINE
  5
66
330
1F
100
AcDbEntity
  8
0
100
AcDbLine
 10
-14.02598206250621
 20
0.5805208150503359
 30
0.0
 11
-14.21269759584885
 21
1.097881544536943
 31
0.0
  0
LINE
  5
67
330
1F
100
AcDbEntity
  8
0
100
AcDbLine
 10
-14.21269759584885
 20
1.097881544536943
 30
0.0
 11
-14.25890070639073
 21
1.6476169633789
 31
0.0
  0
LINE
  5
68
330
1F
100
AcDbEntity
  8
0
100
AcDbLine
 10
-14.25890070639073
 20
1.6476169633789
 30
0.0
 11
-14.16098664444546
 21
2.190858742685751
 31
0.0
  0
LINE
  5
69
330
1F
100
AcDbEntity
  8
0
100
AcDbLine
 10
-14.16098664444546
 20
2.190858742685751
 30
0.0
 11
-13.92567366668187
 21
2.690602532629476
 31
0.0
  0
LINE
  5
6A
330
1F
100
AcDbEntity
  8
0
100
AcDbLine
 10
-13.92567366668187
 20
2.690602532629476
 30
0.0
 11
-13.56902901666223
 21
3.112828824744651
 31
0.0
  0
LINE
  5
6B
330
1F
100
AcDbEntity
  8
0
100
AcDbLine
 10
-13.56902901666223
 20
3.112828824744651
 30
0.0
 11
-13.11536566081055
 21
3.428811352819671
 31
0.0
  0
LINE
  5
6C
330
1F
100
AcDbEntity
  8
0
100
AcDbLine
 10
-13.11536566081055
 20
3.428811352819671
 30
0.0
 11
-12.59558320793272
 21
3.617061950371228
 31
0.0
  0
LINE
  5
6D
330
1F
100
AcDbEntity
  8
0
100
AcDbLine
 10
-12.59558320793272
 20
3.617061950371228
 30
0.0
 11
-12.04506665659799
 21
3.664782749119623
 31
0.0
  0
LINE
  5
6E
330
1F
100
AcDbEntity
  8
0
100
AcDbLine
 10
-12.04506665659799
 20
3.664782749119623
 30
0.0
 11
-11.50128495830965
 21
3.568730010973574
 31
0.0
  0
LINE
  5
6F
330
1F
100
AcDbEntity
  8
0
100
AcDbLine
 10
-11.50128495830965
 20
3.568730010973574
 30
0.0
 11
-11.00125037684593
 21
3.335432947939837
 31
0.0
  0
LINE
  5
70
330
1F
100
AcDbEntity
  8
0
100
AcDbLine
 10
-11.00125037684593
 20
3.335432947939837
 30
0.0
 11
-10.81044185484122
 21
3.175155398575206
 31
0.0
  0
LINE
  5
71
330
1F
100
AcDbEntity
  8
0
100
AcDbLine
 10
2.283728605766482
 20
-14.26706375260529
 30
0.0
 11
1.737630524646455
 21
-14.17028995898423
 31
0.0
  0
LINE
  5
72
330
1F
100
AcDbEntity
  8
0
100
AcDbLine
 10
2.836163521743905
 20
-14.2189837419368
 30
0.0
 11
2.283728605766482
 21
-14.26706375260529
 31
0.0
  0
LINE
  5
73
330
1F
100
AcDbEntity
  8
0
100
AcDbLine
 10
3.357239573971148
 20
-14.02933494943796
 30
0.0
 11
2.836163521743905
 21
-14.2189837419368
 31
0.0
  0
LINE
  5
74
330
1F
100
AcDbEntity
  8
0
100
AcDbLine
 10
3.811408812727317
 20
-13.71107306688385
 30
0.0
 11
3.357239573971148
 21
-14.02933494943796
 31
0.0
  0
LINE
  5
75
330
1F
100
AcDbEntity
  8
0
100
AcDbLine
 10
4.401851582220623
 20
-12.78293587879437
 30
0.0
 11
4.167703620011325
 21
-13.28593311058164
 31
0.0
  0
LINE
  5
76
330
1F
100
AcDbEntity
  8
0
100
AcDbLine
 10
4.49792732901077
 20
-12.23639730707011
 30
0.0
 11
4.401851582220623
 21
-12.78293587879437
 31
0.0
  0
LINE
  5
77
330
1F
100
AcDbEntity
  8
0
100
AcDbLine
 10
4.449429387509879
 20
-11.68357984781425
 30
0.0
 11
4.49792732901077
 21
-12.23639730707011
 31
0.0
  0
LINE
  5
78
330
1F
100
AcDbEntity
  8
0
100
AcDbLine
 10
4.259710933287923
 20
-11.16214861854657
 30
0.0
 11
4.449429387509879
 21
-11.68357984781425
 31
0.0
  0
LINE
  5
79
330
1F
100
AcDbEntity
  8
0
100
AcDbLine
 10
3.941738386424413
 20
-10.70760687106661
 30
0.0
 11
4.259710933287923
 21
-11.16214861854657
 31
0.0
  0
LINE
  5
7A
330
1F
100
AcDbEntity
  8
0
100
AcDbLine
 10
3.517197755955508
 20
-10.35088493038959
 30
0.0
 11
3.941738386424413
 21
-10.70760687106661
 31
0.0
  0
LINE
  5
7B
330
1F
100
AcDbEntity
  8
0
100
AcDbLine
 10
3.015012310767557
 20
-10.11624465142657
 30
0.0
 11
3.517197755955508
 21
-10.35088493038959
 31
0.0
  0
LINE
  5
7C
330
1F
100
AcDbEntity
  8
0
100
AcDbLine
 10
2.469373783706026
 20
-10.01963890552178
 30
0.0
 11
3.015012310767557
 21
-10.11624465142657
 31
0.0
  0
LINE
  5
7D
330
1F
100
AcDbEntity
  8
0
100
AcDbLine
 10
1.917420665071326
 20
-10.06763444747826
 30
0.0
 11
2.469373783706026
 21
-10.01963890552178
 31
0.0
  0
LINE
  5
7E
330
1F
100
AcDbEntity
  8
0
100
AcDbLine
 10
1.396719556229924
 20
-10.25696888817162
 30
0.0
 11
1.917420665071326
 21
-10.06763444747826
 31
0.0
  0
LINE
  5
7F
330
1F
100
AcDbEntity
  8
0
100
AcDbLine
 10
0.9427179411192451
 20
-10.57477076617296
 30
0.0
 11
1.396719556229924
 21
-10.25696888817162
 31
0.0
  0
LINE
  5
80
330
1F
100
AcDbEntity
  8
0
100
AcDbLine
 10
0.5863385231461581
 20
-10.99942832304567
 30
0.0
 11
0.9427179411192451
 21
-10.57477076617296
 31
0.0
  0
LINE
  5
81
330
1F
100
AcDbEntity
  8
0
100
AcDbLine
 10
0.3575575528690083
 20
-11.48987117807346
 30
0.0
 11
0.5863385231461581
 21
-10.99942832304567
 31
0.0
  0
LINE
  5
82
330
1F
100
AcDbEntity
  8
0
100
AcDbLine
 10
17.13506760374225
 20
16.87760603921575
 30
0.0
 11
17.22983430430509
 21
17.42159929947674
 31
0.0
  0
LINE
  5
83
330
1F
100
AcDbEntity
  8
0
100
AcDbLine
 10
17.46291926950354
 20
17.92203389471301
 30
0.0
 11
17.81840655763017
 21
18.34484346200918
 31
0.0
  0
LINE
  5
84
330
1F
100
AcDbEntity
  8
0
100
AcDbLine
 10
17.81840655763017
 20
18.34484346200918
 30
0.0
 11
18.27206168115562
 21
18.66126227173707
 31
0.0
  0
LINE
  5
85
330
1F
100
AcDbEntity
  8
0
100
AcDbLine
 10
18.27206168115562
 20
18.66126227173707
 30
0.0
 11
18.79298544421341
 21
18.84977269788053
 31
0.0
  0
LINE
  5
86
330
1F
100
AcDbEntity
  8
0
100
AcDbLine
 10
18.79298544421341
 20
18.84977269788053
 30
0.0
 11
19.34571520662459
 21
18.89755935128996
 31
0.0
  0
LINE
  5
87
330
1F
100
AcDbEntity
  8
0
100
AcDbLine
 10
19.34571520662459
 20
18.89755935128996
 30
0.0
 11
19.89263157523673
 21
18.80137405596177
 31
0.0
  0
LINE
  5
88
330
1F
100
AcDbEntity
  8
0
100
AcDbLine
 10
19.89263157523673
 20
18.80137405596177
 30
0.0
 11
20.39650919391793
 21
18.56775495802961
 31
0.0
  0
LINE
  5
89
330
1F
100
AcDbEntity
  8
0
100
AcDbLine
 10
20.39650919391793
 20
18.56775495802961
 30
0.0
 11
20.8230412516573
 21
18.2125854361363
 31
0.0
  0
LINE
  5
8A
330
1F
100
AcDbEntity
  8
0
100
AcDbLine
 10
20.8230412516573
 20
18.2125854361363
 30
0.0
 11
21.14316896703392
 21
17.7600216777309
 31
0.0
  0
LINE
  5
8B
330
1F
100
AcDbEntity
  8
0
100
AcDbLine
 10
21.14316896703392
 20
17.7600216777309
 30
0.0
 11
21.33505956549524
 21
17.24085933256625
 31
0.0
  0
LINE
  5
8C
330
1F
100
AcDbEntity
  8
0
100
AcDbLine
 10
21.33505956549524
 20
17.24085933256625
 30
0.0
 11
21.38559858192673
 21
16.69044711474345
 31
0.0
  0
LINE
  5
8D
330
1F
100
AcDbEntity
  8
0
100
AcDbLine
 10
21.38559858192673
 20
16.69044711474345
 30
0.0
 11
21.29129360970031
 21
16.14628625088945
 31
0.0
  0
LINE
  5
8E
330
1F
100
AcDbEntity
  8
0
100
AcDbLine
 10
21.29129360970031
 20
16.14628625088945
 30
0.0
 11
21.05852522912997
 21
15.64547711221917
 31
0.0
  0
LINE
  5
8F
330
1F
100
AcDbEntity
  8
0
100
AcDbLine
 10
20.70312455332176
 20
15.22218642022489
 30
0.0
 11
20.24930286207186
 21
14.90530882149746
 31
0.0
  0
LINE
  5
90
330
1F
100
AcDbEntity
  8
0
100
AcDbLine
 10
20.24930286207186
 20
14.90530882149746
 30
0.0
 11
19.72800398290754
 21
14.71648487421706
 31
0.0
  0
LINE
  5
91
330
1F
100
AcDbEntity
  8
0
100
AcDbLine
 10
19.72800398290754
 20
14.71648487421706
 30
0.0
 11
19.17479106807151
 21
14.66861397530253
 31
0.0
  0
LINE
  5
92
330
1F
100
AcDbEntity
  8
0
100
AcDbLine
 10
19.17479106807151
 20
14.66861397530253
 30
0.0
 11
18.62741297105064
 21
14.76496687428419
 31
0.0
  0
LINE
  5
93
330
1F
100
AcDbEntity
  8
0
100
AcDbLine
 10
18.62741297105064
 20
14.76496687428419
 30
0.0
 11
18.12321876775755
 21
14.99896051574265
 31
0.0
  0
LINE
  5
94
330
1F
100
AcDbEntity
  8
0
100
AcDbLine
 10
18.12321876775755
 20
14.99896051574265
 30
0.0
 11
17.69660009778826
 21
15.35461116236592
 31
0.0
  0
LINE
  5
95
330
1F
100
AcDbEntity
  8
0
100
AcDbLine
 10
17.69660009778826
 20
15.35461116236592
 30
0.0
 11
17.37663895020838
 21
15.80763370971043
 31
0.0
  0
LINE
  5
96
330
1F
100
AcDbEntity
  8
0
100
AcDbLine
 10
17.37663895020838
 20
15.80763370971043
 30
0.0
 11
17.18512346783738
 21
16.32710957591971
 31
0.0
  0
LINE
  5
97
330
1F
100
AcDbEntity
  8
0
100
AcDbLine
 10
17.18512346783738
 20
16.32710957591971
 30
0.0
 11
17.13506760374225
 21
16.87760603921575
 31
0.0
  0
LINE
  5
98
330
1F
100
AcDbEntity
  8
0
100
AcDbLine
 10
-13.47792605868633
 20
17.42410913413453
 30
0.0
 11
-13.52402469664609
 21
17.96972007759186
 31
0.0
  0
LINE
  5
99
330
1F
100
AcDbEntity
  8
0
100
AcDbLine
 10
-13.36186149744105
 20
17.10375088381467
 30
0.0
 11
-13.47792605868633
 21
17.42410913413453
 31
0.0
  0
LINE
  5
9A
330
1F
100
AcDbEntity
  8
0
100
AcDbLine
 10
-9.544920354846713
 20
18.84430677801922
 30
0.0
 11
-9.431499188747507
 21
18.53205252603717
 31
0.0
  0
LINE
  5
9B
330
1F
100
AcDbEntity
  8
0
100
AcDbLine
 10
-9.859380403149716
 20
19.29285640611187
 30
0.0
 11
-9.544920354846713
 21
18.84430677801922
 31
0.0
  0
LINE
  5
9C
330
1F
100
AcDbEntity
  8
0
100
AcDbLine
 10
-10.27994983412998
 20
19.6448761786708
 30
0.0
 11
-9.859380403149716
 21
19.29285640611187
 31
0.0
  0
LINE
  5
9D
330
1F
100
AcDbEntity
  8
0
100
AcDbLine
 10
-10.77797575500283
 20
19.87642372099153
 30
0.0
 11
-10.27994983412998
 21
19.6448761786708
 31
0.0
  0
LINE
  5
9E
330
1F
100
AcDbEntity
  8
0
100
AcDbLine
 10
-11.31954935668221
 20
19.97175617589156
 30
0.0
 11
-10.77797575500283
 21
19.87642372099153
 31
0.0
  0
LINE
  5
9F
330
1F
100
AcDbEntity
  8
0
100
AcDbLine
 10
-11.86780848433814
 20
19.92439322538056
 30
0.0
 11
-11.31954935668221
 21
19.97175617589156
 31
0.0
  0
LINE
  5
A0
330
1F
100
AcDbEntity
  8
0
100
AcDbLine
 10
-12.38543763459349
 20
19.73755431733734
 30
0.0
 11
-11.86780848433814
 21
19.92439322538056
 31
0.0
  0
LINE
  5
A1
330
1F
100
AcDbEntity
  8
0
100
AcDbLine
 10
-12.83719824371172
 20
19.42394147511908
 30
0.0
 11
-12.38543763459349
 21
19.73755431733734
 31
0.0
  0
LINE
  5
A2
330
1F
100
AcDbEntity
  8
0
100
AcDbLine
 10
-13.19232022789702
 20
19.00488190112933
 30
0.0
 11
-12.83719824371172
 21
19.42394147511908
 31
0.0
  0
LINE
  5
A3
330
1F
100
AcDbEntity
  8
0
100
AcDbLine
 10
-13.42659444763035
 20
18.50888660700937
 30
0.0
 11
-13.19232022789702
 21
19.00488190112933
 31
0.0
  0
LINE
  5
A4
330
1F
100
AcDbEntity
  8
0
100
AcDbLine
 10
-13.52402469664609
 20
17.96972007759186
 30
0.0
 11
-13.42659444763035
 21
18.50888660700937
 31
0.0
  0
LINE
  5
A5
330
1F
100
AcDbEntity
  8
0
100
AcDbLine
 10
21.11316391333117
 20
15.90074076691202
 30
0.0
 11
20.91514414995748
 21
15.47470682292866
 31
0.0
  0
LINE
  5
A6
330
1F
100
AcDbEntity
  8
0
100
AcDbLine
 10
21.20670023381286
 20
16.44037743164267
 30
0.0
 11
21.11316391333117
 21
15.90074076691202
 31
0.0
  0
LINE
  5
A7
330
1F
100
AcDbEntity
  8
0
100
AcDbLine
 10
21.15660451323172
 20
16.98621452879534
 30
0.0
 11
21.20670023381286
 21
16.44037743164267
 31
0.0
  0
LINE
  5
A8
330
1F
100
AcDbEntity
  8
0
100
AcDbLine
 10
20.96633814474004
 20
17.50106247787669
 30
0.0
 11
21.15660451323172
 21
16.98621452879534
 31
0.0
  0
LINE
  5
A9
330
1F
100
AcDbEntity
  8
0
100
AcDbLine
 10
20.64890428247651
 20
17.94986606303841
 30
0.0
 11
20.96633814474004
 21
17.50106247787669
 31
0.0
  0
LINE
  5
AA
330
1F
100
AcDbEntity
  8
0
100
AcDbLine
 10
20.2259518446577
 20
18.30208512316705
 30
0.0
 11
20.64890428247651
 21
17.94986606303841
 31
0.0
  0
LINE
  5
AB
330
1F
100
AcDbEntity
  8
0
100
AcDbLine
 10
19.72629581379971
 20
18.53376374252295
 30
0.0
 11
20.2259518446577
 21
18.30208512316705
 31
0.0
  0
LINE
  5
AC
330
1F
100
AcDbEntity
  8
0
100
AcDbLine
 10
19.18395583457337
 20
18.62915016243066
 30
0.0
 11
19.72629581379971
 21
18.53376374252295
 31
0.0
  0
LINE
  5
AD
330
1F
100
AcDbEntity
  8
0
100
AcDbLine
 10
18.63584615788508
 20
18.58176040122791
 30
0.0
 11
19.18395583457337
 21
18.62915016243066
 31
0.0
  0
LINE
  5
AE
330
1F
100
AcDbEntity
  8
0
100
AcDbLine
 10
18.11927212854559
 20
18.39481572688409
 30
0.0
 11
18.63584615788508
 21
18.58176040122791
 31
0.0
  0
LINE
  5
AF
330
1F
100
AcDbEntity
  8
0
100
AcDbLine
 10
17.66940058234351
 20
18.0810253444488
 30
0.0
 11
18.11927212854559
 21
18.39481572688409
 31
0.0
  0
LINE
  5
B0
330
1F
100
AcDbEntity
  8
0
100
AcDbLine
 10
17.37248740505165
 20
17.72787622587789
 30
0.0
 11
17.66940058234351
 21
18.0810253444488
 31
0.0
  0
LINE
  5
B1
330
1F
100
AcDbEntity
  8
0
100
AcDbLine
 10
15.87539152508423
 20
-13.94684509916737
 30
0.0
 11
15.97091874648723
 21
-13.39576511849366
 31
0.0
  0
LINE
  5
B2
330
1F
100
AcDbEntity
  8
0
100
AcDbLine
 10
15.97091874648723
 20
-13.39576511849366
 30
0.0
 11
16.20565035783817
 21
-12.88881197535106
 31
0.0
  0
LINE
  5
B3
330
1F
100
AcDbEntity
  8
0
100
AcDbLine
 10
16.20565035783817
 20
-12.88881197535106
 30
0.0
 11
16.56355779991503
 21
-12.46049552704839
 31
0.0
  0
LINE
  5
B4
330
1F
100
AcDbEntity
  8
0
100
AcDbLine
 10
16.56355779991503
 20
-12.46049552704839
 30
0.0
 11
17.02024155645196
 21
-12.1399558462548
 31
0.0
  0
LINE
  5
B5
330
1F
100
AcDbEntity
  8
0
100
AcDbLine
 10
17.54459626442797
 20
-11.94899049199522
 30
0.0
 11
18.10092596656964
 21
-11.9005815395849
 31
0.0
  0
LINE
  5
B6
330
1F
100
AcDbEntity
  8
0
100
AcDbLine
 10
18.10092596656964
 20
-11.9005815395849
 30
0.0
 11
18.65136657005921
 21
-11.99801940895051
 31
0.0
  0
LINE
  5
B7
330
1F
100
AcDbEntity
  8
0
100
AcDbLine
 10
18.65136657005921
 20
-11.99801940895051
 30
0.0
 11
19.15845314377633
 21
-12.23468092083435
 31
0.0
  0
LINE
  5
B8
330
1F
100
AcDbEntity
  8
0
100
AcDbLine
 10
19.15845314377633
 20
-12.23468092083435
 30
0.0
 11
19.58766059361967
 21
-12.59447609364904
 31
0.0
  0
LINE
  5
B9
330
1F
100
AcDbEntity
  8
0
100
AcDbLine
 10
19.58766059361967
 20
-12.59447609364904
 30
0.0
 11
19.90974791498573
 21
-13.05293445088175
 31
0.0
  0
LINE
  5
BA
330
1F
100
AcDbEntity
  8
0
100
AcDbLine
 10
19.90974791498573
 20
-13.05293445088175
 30
0.0
 11
20.10274856122989
 21
-13.57885953392926
 31
0.0
  0
LINE
  5
BB
330
1F
100
AcDbEntity
  8
0
100
AcDbLine
 10
20.10274856122989
 20
-13.57885953392926
 30
0.0
 11
20.15347192347191
 21
-14.13644237390024
 31
0.0
  0
LINE
  5
BC
330
1F
100
AcDbEntity
  8
0
100
AcDbLine
 10
20.15347192347191
 20
-14.13644237390024
 30
0.0
 11
20.05841240135245
 21
-14.68769324418028
 31
0.0
  0
LINE
  5
BD
330
1F
100
AcDbEntity
  8
0
100
AcDbLine
 10
20.05841240135245
 20
-14.68769324418028
 30
0.0
 11
19.82400139959544
 21
-15.19502827400489
 31
0.0
  0
LINE
  5
BE
330
1F
100
AcDbEntity
  8
0
100
AcDbLine
 10
19.82400139959544
 20
-15.19502827400489
 30
0.0
 11
19.46618157033502
 21
-15.62383527987212
 31
0.0
  0
LINE
  5
BF
330
1F
100
AcDbEntity
  8
0
100
AcDbLine
 10
19.46618157033502
 20
-15.62383527987212
 30
0.0
 11
19.00932895402042
 21
-15.9448427446216
 31
0.0
  0
LINE
  5
C0
330
1F
100
AcDbEntity
  8
0
100
AcDbLine
 10
19.00932895402042
 20
-15.9448427446216
 30
0.0
 11
18.48459415948649
 21
-16.13612776687234
 31
0.0
  0
LINE
  5
C1
330
1F
100
AcDbEntity
  8
0
100
AcDbLine
 10
18.48459415948649
 20
-16.13612776687234
 30
0.0
 11
17.92777498789904
 21
-16.18462261649412
 31
0.0
  0
LINE
  5
C2
330
1F
100
AcDbEntity
  8
0
100
AcDbLine
 10
17.92777498789904
 20
-16.18462261649412
 30
0.0
 11
17.37686668505176
 21
-16.08701385745976
 31
0.0
  0
LINE
  5
C3
330
1F
100
AcDbEntity
  8
0
100
AcDbLine
 10
16.86945950175736
 20
-15.84997045879856
 30
0.0
 11
16.4401644391884
 21
-15.4896847283864
 31
0.0
  0
LINE
  5
C4
330
1F
100
AcDbEntity
  8
0
100
AcDbLine
 10
16.4401644391884
 20
-15.4896847283864
 30
0.0
 11
16.11824597767421
 21
-15.03075858726023
 31
0.0
  0
LINE
  5
C5
330
1F
100
AcDbEntity
  8
0
100
AcDbLine
 10
16.11824597767421
 20
-15.03075858726023
 30
0.0
 11
15.9256254179713
 21
-14.50451383631691
 31
0.0
  0
LINE
  5
C6
330
1F
100
AcDbEntity
  8
0
100
AcDbLine
 10
15.9256254179713
 20
-14.50451383631691
 30
0.0
 11
15.87539152508423
 21
-13.94684509916737
 31
0.0
  0
LINE
  5
C7
330
1F
100
AcDbEntity
  8
0
100
AcDbLine
 10
-12.85898396217136
 20
-10.52910669242728
 30
0.0
 11
-12.30933284557713
 21
-10.62648861091283
 31
0.0
  0
LINE
  5
C8
330
1F
100
AcDbEntity
  8
0
100
AcDbLine
 10
-11.8039255335123
 20
-10.86301422201318
 30
0.0
 11
-11.37717294645027
 21
-11.22260277273217
 31
0.0
  0
LINE
  5
C9
330
1F
100
AcDbEntity
  8
0
100
AcDbLine
 10
-11.37717294645027
 20
-11.22260277273217
 30
0.0
 11
-11.05814911644697
 21
-11.68079782533016
 31
0.0
  0
LINE
  5
CA
330
1F
100
AcDbEntity
  8
0
100
AcDbLine
 10
-11.05814911644697
 20
-11.68079782533016
 30
0.0
 11
-10.8686121112948
 21
-12.20642082472889
 31
0.0
  0
LINE
  5
CB
330
1F
100
AcDbEntity
  8
0
100
AcDbLine
 10
-10.8686121112948
 20
-12.20642082472889
 30
0.0
 11
-10.821516683703
 21
-12.76368336099918
 31
0.0
  0
LINE
  5
CC
330
1F
100
AcDbEntity
  8
0
100
AcDbLine
 10
-10.821516683703
 20
-12.76368336099918
 30
0.0
 11
-10.92012122405887
 21
-13.31461752825363
 31
0.0
  0
LINE
  5
CD
330
1F
100
AcDbEntity
  8
0
100
AcDbLine
 10
-10.92012122405887
 20
-13.31461752825363
 30
0.0
 11
-11.15775260328495
 21
-13.82166105318201
 31
0.0
  0
LINE
  5
CE
330
1F
100
AcDbEntity
  8
0
100
AcDbLine
 10
-11.15775260328495
 20
-13.82166105318201
 30
0.0
 11
-11.51824844032469
 21
-14.25022165071668
 31
0.0
  0
LINE
  5
CF
330
1F
100
AcDbEntity
  8
0
100
AcDbLine
 10
-11.51824844032469
 20
-14.25022165071668
 30
0.0
 11
-11.97705000653495
 21
-14.57104463826616
 31
0.0
  0
LINE
  5
D0
330
1F
100
AcDbEntity
  8
0
100
AcDbLine
 10
-12.50287358203159
 20
-14.76221972657671
 30
0.0
 11
-13.0598469817293
 21
-14.81068670489165
 31
0.0
  0
LINE
  5
D1
330
1F
100
AcDbEntity
  8
0
100
AcDbLine
 10
-13.0598469817293
 20
-14.81068670489165
 30
0.0
 11
-13.60996442190607
 21
-14.71313404397338
 31
0.0
  0
LINE
  5
D2
330
1F
100
AcDbEntity
  8
0
100
AcDbLine
 10
-13.60996442190607
 20
-14.71313404397338
 30
0.0
 11
-14.11568968534467
 21
-14.47622687512368
 31
0.0
  0
LINE
  5
D3
330
1F
100
AcDbEntity
  8
0
100
AcDbLine
 10
-14.11568968534467
 20
-14.47622687512368
 30
0.0
 11
-14.54252665676417
 21
-14.11614818946437
 31
0.0
  0
LINE
  5
D4
330
1F
100
AcDbEntity
  8
0
100
AcDbLine
 10
-14.54252665676417
 20
-14.11614818946437
 30
0.0
 11
-14.8613786934215
 21
-13.65748575600855
 31
0.0
  0
LINE
  5
D5
330
1F
100
AcDbEntity
  8
0
100
AcDbLine
 10
-14.8613786934215
 20
-13.65748575600855
 30
0.0
 11
-15.05053375943953
 21
-13.13154336413509
 31
0.0
  0
LINE
  5
D6
330
1F
100
AcDbEntity
  8
0
100
AcDbLine
 10
-15.05053375943953
 20
-13.13154336413509
 30
0.0
 11
-15.09713944238526
 21
-12.57419500469398
 31
0.0
  0
LINE
  5
D7
330
1F
100
AcDbEntity
  8
0
100
AcDbLine
 10
-15.09713944238526
 20
-12.57419500469398
 30
0.0
 11
-14.99806857852053
 21
-12.02343157980991
 31
0.0
  0
LINE
  5
D8
330
1F
100
AcDbEntity
  8
0
100
AcDbLine
 10
-14.99806857852053
 20
-12.02343157980991
 30
0.0
 11
-14.76011924790343
 21
-11.51676961253568
 31
0.0
  0
LINE
  5
D9
330
1F
100
AcDbEntity
  8
0
100
AcDbLine
 10
-14.76011924790343
 20
-11.51676961253568
 30
0.0
 11
-14.39953902641527
 21
-11.08869914990847
 31
0.0
  0
LINE
  5
DA
330
1F
100
AcDbEntity
  8
0
100
AcDbLine
 10
-14.39953902641527
 20
-11.08869914990847
 30
0.0
 11
-13.94090925347732
 21
-10.76834354327915
 31
0.0
  0
LINE
  5
DB
330
1F
100
AcDbEntity
  8
0
100
AcDbLine
 10
-13.94090925347732
 20
-10.76834354327915
 30
0.0
 11
-13.41546761713207
 21
-10.57748784753855
 31
0.0
  0
LINE
  5
DC
330
1F
100
AcDbEntity
  8
0
100
AcDbLine
 10
-13.41546761713207
 20
-10.57748784753855
 30
0.0
 11
-12.85898396217136
 21
-10.52910669242728
 31
0.0
  0
LINE
  5
DD
330
1F
100
AcDbEntity
  8
0
100
AcDbLine
 10
-12.57844489434888
 20
-10.74130029559669
 30
0.0
 11
-12.14460425495285
 21
-10.70357995809561
 31
0.0
  0
LINE
  5
DE
330
1F
100
AcDbEntity
  8
0
100
AcDbLine
 10
-13.07107038776269
 20
-10.92025374644923
 30
0.0
 11
-12.57844489434888
 21
-10.74130029559669
 31
0.0
  0
LINE
  5
DF
330
1F
100
AcDbEntity
  8
0
100
AcDbLine
 10
-13.5010275774167
 20
-11.22062915906038
 30
0.0
 11
-13.07107038776269
 21
-10.92025374644923
 31
0.0
  0
LINE
  5
E0
330
1F
100
AcDbEntity
  8
0
100
AcDbLine
 10
-13.83903067998759
 20
-11.62199745640689
 30
0.0
 11
-13.5010275774167
 21
-11.22062915906038
 31
0.0
  0
LINE
  5
E1
330
1F
100
AcDbEntity
  8
0
100
AcDbLine
 10
-14.06203795516793
 20
-12.09704907785382
 30
0.0
 11
-13.83903067998759
 21
-11.62199745640689
 31
0.0
  0
LINE
  5
E2
330
1F
100
AcDbEntity
  8
0
100
AcDbLine
 10
-14.15482393200869
 20
-12.61344355753868
 30
0.0
 11
-14.06203795516793
 21
-12.09704907785382
 31
0.0
  0
LINE
  5
E3
330
1F
100
AcDbEntity
  8
0
100
AcDbLine
 10
-14.11102446288927
 20
-13.13600448993648
 30
0.0
 11
-14.15482393200869
 21
-12.61344355753868
 31
0.0
  0
LINE
  5
E4
330
1F
100
AcDbEntity
  8
0
100
AcDbLine
 10
-13.93358139296026
 20
-13.62911270818802
 30
0.0
 11
-14.11102446288927
 21
-13.13600448993648
 31
0.0
  0
LINE
  5
E5
330
1F
100
AcDbEntity
  8
0
100
AcDbLine
 10
-13.63455360727099
 20
-14.05913567103429
 30
0.0
 11
-13.93358139296026
 21
-13.62911270818802
 31
0.0
  0
LINE
  5
E6
330
1F
100
AcDbEntity
  8
0
100
AcDbLine
 10
-13.23430424156338
 20
-14.3967269702055
 30
0.0
 11
-13.63455360727099
 21
-14.05913567103429
 31
0.0
  0
LINE
  5
E7
330
1F
100
AcDbEntity
  8
0
100
AcDbLine
 10
-12.76011702873818
 20
-14.61883724290135
 30
0.0
 11
-13.23430424156338
 21
-14.3967269702055
 31
0.0
  0
LINE
  5
E8
330
1F
100
AcDbEntity
  8
0
100
AcDbLine
 10
-12.32212162594612
 20
-14.69650325288246
 30
0.0
 11
-12.76011702873818
 21
-14.61883724290135
 31
0.0
  0
LINE
  5
E9
330
1F
100
AcDbEntity
  8
0
100
AcDbLine
 10
18.8477513994147
 20
-13.55539549073818
 30
0.0
 11
18.89517048410344
 21
-14.07816254149134
 31
0.0
  0
LINE
  5
EA
330
1F
100
AcDbEntity
  8
0
100
AcDbLine
 10
18.66692789372671
 20
-13.06230248768063
 30
0.0
 11
18.8477513994147
 21
-13.55539549073818
 31
0.0
  0
LINE
  5
EB
330
1F
100
AcDbEntity
  8
0
100
AcDbLine
 10
18.36505614365052
 20
-12.63245891651134
 30
0.0
 11
18.66692789372671
 21
-13.06230248768063
 31
0.0
  0
LINE
  5
EC
330
1F
100
AcDbEntity
  8
0
100
AcDbLine
 10
17.96272301427761
 20
-12.29511683718335
 30
0.0
 11
18.36505614365052
 21
-12.63245891651134
 31
0.0
  0
LINE
  5
ED
330
1F
100
AcDbEntity
  8
0
100
AcDbLine
 10
17.48733914236161
 20
-12.0732225074025
 30
0.0
 11
17.96272301427761
 21
-12.29511683718335
 31
0.0
  0
LINE
  5
EE
330
1F
100
AcDbEntity
  8
0
100
AcDbLine
 10
17.29632705193869
 20
-12.0394079468089
 30
0.0
 11
17.48733914236161
 21
-12.0732225074025
 31
0.0
  0
LINE
  5
EF
330
1F
100
AcDbEntity
  8
0
100
AcDbLine
 10
17.33003790564088
 20
-15.95292379923787
 30
0.0
 11
17.12757956433146
 21
-15.97055538331215
 31
0.0
  0
LINE
  5
F0
330
1F
100
AcDbEntity
  8
0
100
AcDbLine
 10
17.82204206637487
 20
-15.77359295215641
 30
0.0
 11
17.33003790564088
 21
-15.95292379923787
 31
0.0
  0
LINE
  5
F1
330
1F
100
AcDbEntity
  8
0
100
AcDbLine
 10
18.25043707576357
 20
-15.47264452857598
 30
0.0
 11
17.82204206637487
 21
-15.77359295215641
 31
0.0
  0
LINE
  5
F2
330
1F
100
AcDbEntity
  8
0
100
AcDbLine
 10
18.58601369290566
 20
-15.07062877843225
 30
0.0
 11
18.25043707576357
 21
-15.47264452857598
 31
0.0
  0
LINE
  5
F3
330
1F
100
AcDbEntity
  8
0
100
AcDbLine
 10
18.80591064003146
 20
-14.59498550640046
 30
0.0
 11
18.58601369290566
 21
-15.07062877843225
 31
0.0
  0
LINE
  5
F4
330
1F
100
AcDbEntity
  8
0
100
AcDbLine
 10
18.89517048410344
 20
-14.07816254149134
 30
0.0
 11
18.80591064003146
 21
-14.59498550640046
 31
0.0
  0
LINE
  5
F5
330
1F
100
AcDbEntity
  8
0
100
AcDbLine
 10
-5.207965228429955
 20
0.2473812034542561
 30
0.0
 11
-5.400052478052126
 21
2.483001515636355
 31
0.0
  0
LINE
  5
F6
330
1F
100
AcDbEntity
  8
0
100
AcDbLine
 10
-5.400052478052126
 20
2.483001515636355
 30
0.0
 11
-5.006180747765121
 21
4.690660117947454
 31
0.0
  0
LINE
  5
F7
330
1F
100
AcDbEntity
  8
0
100
AcDbLine
 10
-5.006180747765121
 20
4.690660117947454
 30
0.0
 11
-4.053945134963761
 21
6.720186285469786
 31
0.0
  0
LINE
  5
F8
330
1F
100
AcDbEntity
  8
0
100
AcDbLine
 10
-4.053945134963761
 20
6.720186285469786
 30
0.0
 11
-2.6087523232435
 21
8.43388678460649
 31
0.0
  0
LINE
  5
F9
330
1F
100
AcDbEntity
  8
0
100
AcDbLine
 10
-2.6087523232435
 20
8.43388678460649
 30
0.0
 11
-0.7692265117752758
 21
9.715764262064395
 31
0.0
  0
LINE
  5
FA
330
1F
100
AcDbEntity
  8
0
100
AcDbLine
 10
-0.7692265117752758
 20
9.715764262064395
 30
0.0
 11
1.339547529075214
 21
10.47921143713105
 31
0.0
  0
LINE
  5
FB
330
1F
100
AcDbEntity
  8
0
100
AcDbLine
 10
1.339547529075214
 20
10.47921143713105
 30
0.0
 11
3.574474633814136
 21
10.67271298374101
 31
0.0
  0
LINE
  5
FC
330
1F
100
AcDbEntity
  8
0
100
AcDbLine
 10
3.574474633814136
 20
10.67271298374101
 30
0.0
 11
5.784036780913626
 21
10.28321969234838
 31
0.0
  0
LINE
  5
FD
330
1F
100
AcDbEntity
  8
0
100
AcDbLine
 10
5.784036780913626
 20
10.28321969234838
 30
0.0
 11
7.818408348290068
 21
9.337001106918239
 31
0.0
  0
LINE
  5
FE
330
1F
100
AcDbEntity
  8
0
100
AcDbLine
 10
7.818408348290068
 20
9.337001106918239
 30
0.0
 11
9.539465640935719
 21
7.897928219039052
 31
0.0
  0
LINE
  5
FF
330
1F
100
AcDbEntity
  8
0
100
AcDbLine
 10
9.539465640935719
 20
7.897928219039052
 30
0.0
 11
10.83006192896063
 21
6.063283967877838
 31
0.0
  0
LINE
  5
100
330
1F
100
AcDbEntity
  8
0
100
AcDbLine
 10
10.83006192896063
 20
6.063283967877838
 30
0.0
 11
11.60197272395306
 21
3.957343817973562
 31
0.0
  0
LINE
  5
101
330
1F
100
AcDbEntity
  8
0
100
AcDbLine
 10
11.60197272395306
 20
3.957343817973562
 30
0.0
 11
11.80198029457303
 21
1.723107996713212
 31
0.0
  0
LINE
  5
102
330
1F
100
AcDbEntity
  8
0
100
AcDbLine
 10
11.80198029457303
 20
1.723107996713212
 30
0.0
 11
11.41566393201794
 21
-0.4873050050380806
 31
0.0
  0
LINE
  5
103
330
1F
100
AcDbEntity
  8
0
100
AcDbLine
 10
11.41566393201794
 20
-0.4873050050380806
 30
0.0
 11
10.46859428608248
 21
-2.522986429214017
 31
0.0
  0
LINE
  5
104
330
1F
100
AcDbEntity
  8
0
100
AcDbLine
 10
10.46859428608248
 20
-2.522986429214017
 30
0.0
 11
9.024793822088988
 21
-4.244593755265477
 31
0.0
  0
LINE
  5
105
330
1F
100
AcDbEntity
  8
0
100
AcDbLine
 10
7.182513652054049
 20
-5.534011005152928
 30
0.0
 11
5.067576567414769
 21
-6.302610616273149
 31
0.0
  0
LINE
  5
106
330
1F
100
AcDbEntity
  8
0
100
AcDbLine
 10
5.067576567414769
 20
-6.302610616273149
 30
0.0
 11
2.824729117894386
 21
-6.497496662383818
 31
0.0
  0
LINE
  5
107
330
1F
100
AcDbEntity
  8
0
100
AcDbLine
 10
2.824729117894386
 20
-6.497496662383818
 30
0.0
 11
0.6076115837141529
 21
-6.105248955275767
 31
0.0
  0
LINE
  5
108
330
1F
100
AcDbEntity
  8
0
100
AcDbLine
 10
0.6076115837141529
 20
-6.105248955275767
 30
0.0
 11
-1.431925946093315
 21
-5.152875088337823
 31
0.0
  0
LINE
  5
109
330
1F
100
AcDbEntity
  8
0
100
AcDbLine
 10
-1.431925946093315
 20
-5.152875088337823
 30
0.0
 11
-3.154375562682088
 21
-3.705895364964906
 31
0.0
  0
LINE
  5
10A
330
1F
100
AcDbEntity
  8
0
100
AcDbLine
 10
-5.085073341189174
 20
-0.0700064371803051
 30
0.0
 11
-5.272686311473124
 21
2.113029743122314
 31
0.0
  0
LINE
  5
10B
330
1F
100
AcDbEntity
  8
0
100
AcDbLine
 10
10.22142754940955
 20
-2.775145045174217
 30
0.0
 11
8.938338793982481
 21
-4.305103880920209
 31
0.0
  0
LINE
  5
10C
330
1F
100
AcDbEntity
  8
0
100
AcDbLine
 10
11.1462489753905
 20
-0.787401501683946
 30
0.0
 11
10.22142754940955
 21
-2.775145045174217
 31
0.0
  0
LINE
  5
10D
330
1F
100
AcDbEntity
  8
0
100
AcDbLine
 10
11.52357425800091
 20
1.371004292044611
 30
0.0
 11
11.1462489753905
 21
-0.787401501683946
 31
0.0
  0
LINE
  5
10E
330
1F
100
AcDbEntity
  8
0
100
AcDbLine
 10
11.32841018708677
 20
3.552720425611751
 30
0.0
 11
11.52357425800091
 21
1.371004292044611
 31
0.0
  0
LINE
  5
10F
330
1F
100
AcDbEntity
  8
0
100
AcDbLine
 10
10.57481055957329
 20
5.609200915304689
 30
0.0
 11
11.32841018708677
 21
3.552720425611751
 31
0.0
  0
LINE
  5
110
330
1F
100
AcDbEntity
  8
0
100
AcDbLine
 10
9.31471670175137
 20
7.400792073120161
 30
0.0
 11
10.57481055957329
 21
5.609200915304689
 31
0.0
  0
LINE
  5
111
330
1F
100
AcDbEntity
  8
0
100
AcDbLine
 10
7.634261780236269
 20
8.806117420566268
 30
0.0
 11
9.31471670175137
 21
7.400792073120161
 31
0.0
  0
LINE
  5
112
330
1F
100
AcDbEntity
  8
0
100
AcDbLine
 10
5.647832132496345
 20
9.730157255391372
 30
0.0
 11
7.634261780236269
 21
8.806117420566268
 31
0.0
  0
LINE
  5
113
330
1F
100
AcDbEntity
  8
0
100
AcDbLine
 10
3.490308310159547
 20
10.11052359298273
 30
0.0
 11
5.647832132496345
 21
9.730157255391372
 31
0.0
  0
LINE
  5
114
330
1F
100
AcDbEntity
  8
0
100
AcDbLine
 10
1.308004635704234
 20
9.92155616354857
 30
0.0
 11
3.490308310159547
 21
10.11052359298273
 31
0.0
  0
LINE
  5
115
330
1F
100
AcDbEntity
  8
0
100
AcDbLine
 10
-0.7511103686653746
 20
9.176001573069986
 30
0.0
 11
1.308004635704234
 21
9.92155616354857
 31
0.0
  0
LINE
  5
116
330
1F
100
AcDbEntity
  8
0
100
AcDbLine
 10
-2.54729711929213
 20
7.924179591810697
 30
0.0
 11
-0.7511103686653746
 21
9.176001573069986
 31
0.0
  0
LINE
  5
117
330
1F
100
AcDbEntity
  8
0
100
AcDbLine
 10
-3.95841146552507
 20
6.250684144171544
 30
0.0
 11
-2.54729711929213
 21
7.924179591810697
 31
0.0
  0
LINE
  5
118
330
1F
100
AcDbEntity
  8
0
100
AcDbLine
 10
-4.888157930188554
 20
4.268809347030674
 30
0.0
 11
-3.95841146552507
 21
6.250684144171544
 31
0.0
  0
LINE
  5
119
330
1F
100
AcDbEntity
  8
0
100
AcDbLine
 10
-5.272686311473124
 20
2.113029743122314
 30
0.0
 11
-4.888157930188554
 21
4.268809347030674
 31
0.0
  0
LINE
  5
11A
330
1F
100
AcDbEntity
  8
0
100
AcDbLine
 10
-1.530426170859399
 20
3.209998762481604
 30
0.0
 11
-0.9909971430161691
 21
4.36184924408737
 31
0.0
  0
LINE
  5
11B
330
1F
100
AcDbEntity
  8
0
100
AcDbLine
 10
-0.1715363691043062
 20
5.334785089457612
 30
0.0
 11
0.8720669569166151
 21
6.062756154443671
 31
0.0
  0
LINE
  5
11C
330
1F
100
AcDbEntity
  8
0
100
AcDbLine
 10
0.8720669569166151
 20
6.062756154443671
 30
0.0
 11
2.068781629721495
 21
6.496394210025541
 31
0.0
  0
LINE
  5
11D
330
1F
100
AcDbEntity
  8
0
100
AcDbLine
 10
2.068781629721495
 20
6.496394210025541
 30
0.0
 11
3.337251300594457
 21
6.606312671497273
 31
0.0
  0
LINE
  5
11E
330
1F
100
AcDbEntity
  8
0
100
AcDbLine
 10
3.337251300594457
 20
6.606312671497273
 30
0.0
 11
4.591285864108462
 21
6.385065137212924
 31
0.0
  0
LINE
  5
11F
330
1F
100
AcDbEntity
  8
0
100
AcDbLine
 10
4.591285864108462
 20
6.385065137212924
 30
0.0
 11
5.745667265691494
 21
5.847641003530575
 31
0.0
  0
LINE
  5
120
330
1F
100
AcDbEntity
  8
0
100
AcDbLine
 10
5.745667265691494
 20
5.847641003530575
 30
0.0
 11
6.721892178463435
 21
5.030467530428028
 31
0.0
  0
LINE
  5
121
330
1F
100
AcDbEntity
  8
0
100
AcDbLine
 10
7.453477475298961
 20
3.988980097214911
 30
0.0
 11
7.890478809506996
 21
2.793912197453609
 31
0.0
  0
LINE
  5
122
330
1F
100
AcDbEntity
  8
0
100
AcDbLine
 10
7.890478809506996
 20
2.793912197453609
 30
0.0
 11
8.002917668592081
 21
1.526539911597551
 31
0.0
  0
LINE
  5
123
330
1F
100
AcDbEntity
  8
0
100
AcDbLine
 10
8.002917668592081
 20
1.526539911597551
 30
0.0
 11
7.782877166021684
 21
0.2731875884478838
 31
0.0
  0
LINE
  5
124
330
1F
100
AcDbEntity
  8
0
100
AcDbLine
 10
7.782877166021684
 20
0.2731875884478838
 30
0.0
 11
7.245109678705782
 21
-0.8806428095793175
 31
0.0
  0
LINE
  5
125
330
1F
100
AcDbEntity
  8
0
100
AcDbLine
 10
6.426096694131245
 20
-1.85612198362807
 30
0.0
 11
5.38160742056574
 21
-2.586518307009118
 31
0.0
  0
LINE
  5
126
330
1F
100
AcDbEntity
  8
0
100
AcDbLine
 10
5.38160742056574
 20
-2.586518307009118
 30
0.0
 11
4.182910451530825
 21
-3.021813704057735
 31
0.0
  0
LINE
  5
127
330
1F
100
AcDbEntity
  8
0
100
AcDbLine
 10
4.182910451530825
 20
-3.021813704057735
 30
0.0
 11
2.91189329058431
 21
-3.132177505819196
 31
0.0
  0
LINE
  5
128
330
1F
100
AcDbEntity
  8
0
100
AcDbLine
 10
2.91189329058431
 20
-3.132177505819196
 30
0.0
 11
1.65542864196178
 21
-2.910043981751687
 31
0.0
  0
LINE
  5
129
330
1F
100
AcDbEntity
  8
0
100
AcDbLine
 10
1.65542864196178
 20
-2.910043981751687
 30
0.0
 11
0.4993857003102503
 21
-2.370639929076522
 31
0.0
  0
LINE
  5
12A
330
1F
100
AcDbEntity
  8
0
100
AcDbLine
 10
0.4993857003102503
 20
-2.370639929076522
 30
0.0
 11
-0.4772869993385542
 21
-1.550923126407879
 31
0.0
  0
LINE
  5
12B
330
1F
100
AcDbEntity
  8
0
100
AcDbLine
 10
-1.643005385064695
 20
0.6897148021730639
 30
0.0
 11
-1.752896756536698
 21
1.957532427431278
 31
0.0
  0
LINE
  5
12C
330
1F
100
AcDbEntity
  8
0
100
AcDbLine
 10
-1.752896756536698
 20
1.957532427431278
 30
0.0
 11
-1.530426170859399
 21
3.209998762481604
 31
0.0
  0
LINE
  5
12D
330
1F
100
AcDbEntity
  8
0
100
AcDbLine
 10
-4.40217883336896
 20
-1.920984335520183
 30
0.0
 11
-4.903256383990859
 21
-0.5395773451399747
 31
0.0
  0
LINE
  5
12E
330
1F
100
AcDbEntity
  8
0
100
AcDbLine
 10
-1.622407881928401
 20
0.6330516456705657
 30
0.0
 11
-1.690247596827911
 21
1.415689242832982
 31
0.0
  0
LINE
  5
12F
330
1F
100
AcDbEntity
  8
0
100
AcDbLine
 10
7.504619476908012
 20
-0.2086207647457635
 30
0.0
 11
7.124383554980408
 21
-1.024432739257795
 31
0.0
  0
LINE
  5
130
330
1F
100
AcDbEntity
  8
0
100
AcDbLine
 10
7.716865556161543
 20
1.000054614235961
 30
0.0
 11
7.504619476908012
 21
-0.2086207647457635
 31
0.0
  0
LINE
  5
131
330
1F
100
AcDbEntity
  8
0
100
AcDbLine
 10
7.608518020371831
 20
2.22227332204627
 30
0.0
 11
7.716865556161543
 21
1.000054614235961
 31
0.0
  0
LINE
  5
132
330
1F
100
AcDbEntity
  8
0
100
AcDbLine
 10
7.18719708652162
 20
3.374784982324509
 30
0.0
 11
7.608518020371831
 21
2.22227332204627
 31
0.0
  0
LINE
  5
133
330
1F
100
AcDbEntity
  8
0
100
AcDbLine
 10
5.540476805540576
 20
5.167300254045982
 30
0.0
 11
6.481798819582042
 21
4.379202019146952
 31
0.0
  0
LINE
  5
134
330
1F
100
AcDbEntity
  8
0
100
AcDbLine
 10
4.427338768982179
 20
5.685607970794596
 30
0.0
 11
5.540476805540576
 21
5.167300254045982
 31
0.0
  0
LINE
  5
135
330
1F
100
AcDbEntity
  8
0
100
AcDbLine
 10
3.218089013862003
 20
5.898986846224629
 30
0.0
 11
4.427338768982179
 21
5.685607970794596
 31
0.0
  0
LINE
  5
136
330
1F
100
AcDbEntity
  8
0
100
AcDbLine
 10
1.994910584469052
 20
5.792977541440645
 30
0.0
 11
3.218089013862003
 21
5.898986846224629
 31
0.0
  0
LINE
  5
137
330
1F
100
AcDbEntity
  8
0
100
AcDbLine
 10
0.8409248786485881
 20
5.374763160934093
 30
0.0
 11
1.994910584469052
 21
5.792977541440645
 31
0.0
  0
LINE
  5
138
330
1F
100
AcDbEntity
  8
0
100
AcDbLine
 10
-0.1654097900782634
 20
4.672690753061245
 30
0.0
 11
0.8409248786485881
 21
5.374763160934093
 31
0.0
  0
LINE
  5
139
330
1F
100
AcDbEntity
  8
0
100
AcDbLine
 10
-1.475742061074798
 20
2.623540743318108
 30
0.0
 11
-0.9555957918935606
 21
3.734380530363178
 31
0.0
  0
LINE
  5
13A
330
1F
100
AcDbEntity
  8
0
100
AcDbLine
 10
-1.690247596827911
 20
1.415689242832982
 30
0.0
 11
-1.475742061074798
 21
2.623540743318108
 31
0.0
  0
LINE
  5
13B
330
1F
100
AcDbEntity
  8
0
100
AcDbLine
 10
1.737630524646455
 20
-14.17028995898423
 30
0.0
 11
1.857144948668632
 21
-14.23681967506273
 31
0.0
  0
LINE
  5
13C
330
1F
100
AcDbEntity
  8
0
100
AcDbLine
 10
18.52315472535473
 20
-2.059512624075174
 30
0.0
 11
17.66737470841822
 21
-1.660939068340431
 31
0.0
  0
LINE
  5
13D
330
1F
100
AcDbEntity
  8
0
100
AcDbLine
 10
19.45228266638994
 20
-2.223643496068652
 30
0.0
 11
18.52315472535473
 21
-2.059512624075174
 31
0.0
  0
LINE
  5
13E
330
1F
100
AcDbEntity
  8
0
100
AcDbLine
 10
17.66737470841822
 20
-1.660939068340431
 30
0.0
 11
16.94335373877329
 21
-1.055193245821841
 31
0.0
  0
LINE
  5
13F
330
1F
100
AcDbEntity
  8
0
100
AcDbLine
 10
16.94335373877329
 20
-1.055193245821841
 30
0.0
 11
16.40045747152214
 21
-0.2836947587813343
 31
0.0
  0
LINE
  5
140
330
1F
100
AcDbEntity
  8
0
100
AcDbLine
 10
16.40045747152214
 20
-0.2836947587813343
 30
0.0
 11
16.07563528719477
 21
0.60084759063774
 31
0.0
  0
LINE
  5
141
330
1F
100
AcDbEntity
  8
0
100
AcDbLine
 10
16.07563528719477
 20
0.60084759063774
 30
0.0
 11
15.99091520453635
 21
1.538063326042803
 31
0.0
  0
LINE
  5
142
330
1F
100
AcDbEntity
  8
0
100
AcDbLine
 10
15.99091520453635
 20
1.538063326042803
 30
0.0
 11
16.15193172276354
 21
2.464058628760068
 31
0.0
  0
LINE
  5
143
330
1F
100
AcDbEntity
  8
0
100
AcDbLine
 10
16.15193172276354
 20
2.464058628760068
 30
0.0
 11
16.54757911076323
 21
3.315776994836004
 31
0.0
  0
LINE
  5
144
330
1F
100
AcDbEntity
  8
0
100
AcDbLine
 10
17.15080377444568
 20
4.035283367732356
 30
0.0
 11
17.92047220252809
 21
4.573683323411183
 31
0.0
  0
LINE
  5
145
330
1F
100
AcDbEntity
  8
0
100
AcDbLine
 10
17.92047220252809
 20
4.573683323411183
 30
0.0
 11
18.80418072211338
 21
4.89441800019391
 31
0.0
  0
LINE
  5
146
330
1F
100
AcDbEntity
  8
0
100
AcDbLine
 10
18.80418072211338
 20
4.89441800019391
 30
0.0
 11
19.74181385507107
 21
4.975720163047118
 31
0.0
  0
LINE
  5
147
330
1F
100
AcDbEntity
  8
0
100
AcDbLine
 10
19.74181385507107
 20
4.975720163047118
 30
0.0
 11
20.66961223674484
 21
4.812073464053658
 31
0.0
  0
LINE
  5
148
330
1F
100
AcDbEntity
  8
0
100
AcDbLine
 10
20.66961223674484
 20
4.812073464053658
 30
0.0
 11
21.52448058691507
 21
4.414581888571458
 31
0.0
  0
LINE
  5
149
330
1F
100
AcDbEntity
  8
0
100
AcDbLine
 10
21.52448058691507
 20
4.414581888571458
 30
0.0
 11
22.24825206271349
 21
3.81022593754201
 31
0.0
  0
LINE
  5
14A
330
1F
100
AcDbEntity
  8
0
100
AcDbLine
 10
22.24825206271349
 20
3.81022593754201
 30
0.0
 11
22.79162786044402
 21
3.040052798187136
 31
0.0
  0
LINE
  5
14B
330
1F
100
AcDbEntity
  8
0
100
AcDbLine
 10
22.79162786044402
 20
3.040052798187136
 30
0.0
 11
23.11753010955255
 21
2.156416146992166
 31
0.0
  0
LINE
  5
14C
330
1F
100
AcDbEntity
  8
0
100
AcDbLine
 10
23.11753010955255
 20
2.156416146992166
 30
0.0
 11
23.20364138885724
 21
1.219443779523004
 31
0.0
  0
LINE
  5
14D
330
1F
100
AcDbEntity
  8
0
100
AcDbLine
 10
23.20364138885724
 20
1.219443779523004
 30
0.0
 11
23.04395442939207
 21
0.2929643043085419
 31
0.0
  0
LINE
  5
14E
330
1F
100
AcDbEntity
  8
0
100
AcDbLine
 10
23.04395442939207
 20
0.2929643043085419
 30
0.0
 11
22.64921870829302
 21
-0.5598360412520913
 31
0.0
  0
LINE
  5
14F
330
1F
100
AcDbEntity
  8
0
100
AcDbLine
 10
22.64921870829302
 20
-0.5598360412520913
 30
0.0
 11
22.04624353919082
 21
-1.28073228537255
 31
0.0
  0
LINE
  5
150
330
1F
100
AcDbEntity
  8
0
100
AcDbLine
 10
22.04624353919082
 20
-1.28073228537255
 30
0.0
 11
21.27609558122846
 21
-1.820457589239816
 31
0.0
  0
LINE
  5
151
330
1F
100
AcDbEntity
  8
0
100
AcDbLine
 10
20.39130699672764
 20
-2.142097965014492
 30
0.0
 11
19.45228266638994
 21
-2.223643496068652
 31
0.0
  0
LINE
  5
152
330
1F
100
AcDbEntity
  8
0
100
AcDbLine
 10
21.68617362896091
 20
-1.475452668549175
 30
0.0
 11
21.10524850029035
 21
-1.882564311993188
 31
0.0
  0
LINE
  5
153
330
1F
100
AcDbEntity
  8
0
100
AcDbLine
 10
22.27935576048052
 20
-0.7662997237508067
 30
0.0
 11
21.68617362896091
 21
-1.475452668549175
 31
0.0
  0
LINE
  5
154
330
1F
100
AcDbEntity
  8
0
100
AcDbLine
 10
22.66771167751595
 20
0.0726131476198904
 30
0.0
 11
22.27935576048052
 21
-0.7662997237508067
 31
0.0
  0
LINE
  5
155
330
1F
100
AcDbEntity
  8
0
100
AcDbLine
 10
22.82486387391124
 20
0.9840108744535357
 30
0.0
 11
22.66771167751595
 21
0.0726131476198904
 31
0.0
  0
LINE
  5
156
330
1F
100
AcDbEntity
  8
0
100
AcDbLine
 10
22.74023130350984
 20
1.905736570947718
 30
0.0
 11
22.82486387391124
 21
0.9840108744535357
 31
0.0
  0
LINE
  5
157
330
1F
100
AcDbEntity
  8
0
100
AcDbLine
 10
22.41971596759448
 20
2.774999868428539
 30
0.0
 11
22.74023130350984
 21
1.905736570947718
 31
0.0
  0
LINE
  5
158
330
1F
100
AcDbEntity
  8
0
100
AcDbLine
 10
21.8852646987203
 20
3.532649561303315
 30
0.0
 11
22.41971596759448
 21
2.774999868428539
 31
0.0
  0
LINE
  5
159
330
1F
100
AcDbEntity
  8
0
100
AcDbLine
 10
21.17334564245466
 20
4.127181146923434
 30
0.0
 11
21.8852646987203
 21
3.532649561303315
 31
0.0
  0
LINE
  5
15A
330
1F
100
AcDbEntity
  8
0
100
AcDbLine
 10
20.33245070067176
 20
4.518212471543987
 30
0.0
 11
21.17334564245466
 21
4.127181146923434
 31
0.0
  0
LINE
  5
15B
330
1F
100
AcDbEntity
  8
0
100
AcDbLine
 10
19.41979740507858
 20
4.679199804332184
 30
0.0
 11
20.33245070067176
 21
4.518212471543987
 31
0.0
  0
LINE
  5
15C
330
1F
100
AcDbEntity
  8
0
100
AcDbLine
 10
18.49745321880863
 20
4.599218832384838
 30
0.0
 11
19.41979740507858
 21
4.679199804332184
 31
0.0
  0
LINE
  5
15D
330
1F
100
AcDbEntity
  8
0
100
AcDbLine
 10
17.62814007927916
 20
4.283696650198821
 30
0.0
 11
18.49745321880863
 21
4.599218832384838
 31
0.0
  0
LINE
  5
15E
330
1F
100
AcDbEntity
  8
0
100
AcDbLine
 10
16.97745760323046
 20
3.828521803732067
 30
0.0
 11
17.62814007927916
 21
4.283696650198821
 31
0.0
  0
LINE
  5
15F
330
1F
100
AcDbEntity
  8
0
100
AcDbLine
 10
20.32957320288174
 20
-0.8648007793116891
 30
0.0
 11
19.77491606306902
 21
-1.066376033480956
 31
0.0
  0
LINE
  5
160
330
1F
100
AcDbEntity
  8
0
100
AcDbLine
 10
19.18629920723414
 20
-1.117479823707134
 30
0.0
 11
18.60389058973124
 21
-1.014619939471961
 31
0.0
  0
LINE
  5
161
330
1F
100
AcDbEntity
  8
0
100
AcDbLine
 10
18.60389058973124
 20
-1.014619939471961
 30
0.0
 11
18.06743265603649
 21
-0.7648251539173561
 31
0.0
  0
LINE
  5
162
330
1F
100
AcDbEntity
  8
0
100
AcDbLine
 10
18.06743265603649
 20
-0.7648251539173561
 30
0.0
 11
17.6135199436467
 21
-0.3851611142391631
 31
0.0
  0
LINE
  5
163
330
1F
100
AcDbEntity
  8
0
100
AcDbLine
 10
17.6135199436467
 20
-0.3851611142391631
 30
0.0
 11
17.27309562381487
 21
0.0984440694487554
 31
0.0
  0
LINE
  5
164
330
1F
100
AcDbEntity
  8
0
100
AcDbLine
 10
17.27309562381487
 20
0.0984440694487554
 30
0.0
 11
17.06934016569647
 21
0.6529814347534221
 31
0.0
  0
LINE
  5
165
330
1F
100
AcDbEntity
  8
0
100
AcDbLine
 10
17.06934016569647
 20
0.6529814347534221
 30
0.0
 11
17.01609670157167
 21
1.240624629005298
 31
0.0
  0
LINE
  5
166
330
1F
100
AcDbEntity
  8
0
100
AcDbLine
 10
17.01609670157167
 20
1.240624629005298
 30
0.0
 11
17.11693903274168
 21
1.821317229596712
 31
0.0
  0
LINE
  5
167
330
1F
100
AcDbEntity
  8
0
100
AcDbLine
 10
17.36494272921127
 20
2.355505055723028
 30
0.0
 11
17.74317099489484
 21
2.80682659941837
 31
0.0
  0
LINE
  5
168
330
1F
100
AcDbEntity
  8
0
100
AcDbLine
 10
17.74317099489484
 20
2.80682659941837
 30
0.0
 11
18.22583844707006
 21
3.144579607726799
 31
0.0
  0
LINE
  5
169
330
1F
100
AcDbEntity
  8
0
100
AcDbLine
 10
18.22583844707006
 20
3.144579607726799
 30
0.0
 11
18.78007094661543
 21
3.345798778049025
 31
0.0
  0
LINE
  5
16A
330
1F
100
AcDbEntity
  8
0
100
AcDbLine
 10
18.78007094661543
 20
3.345798778049025
 30
0.0
 11
19.36814086122779
 21
3.396806885846857
 31
0.0
  0
LINE
  5
16B
330
1F
100
AcDbEntity
  8
0
100
AcDbLine
 10
19.36814086122779
 20
3.396806885846857
 30
0.0
 11
19.95002678905337
 21
3.294137358646461
 31
0.0
  0
LINE
  5
16C
330
1F
100
AcDbEntity
  8
0
100
AcDbLine
 10
19.95002678905337
 20
3.294137358646461
 30
0.0
 11
20.48612633892685
 21
3.044767963547544
 31
0.0
  0
LINE
  5
16D
330
1F
100
AcDbEntity
  8
0
100
AcDbLine
 10
20.48612633892685
 20
3.044767963547544
 30
0.0
 11
20.93994100199933
 21
2.66565036467345
 31
0.0
  0
LINE
  5
16E
330
1F
100
AcDbEntity
  8
0
100
AcDbLine
 10
20.93994100199933
 20
2.66565036467345
 30
0.0
 11
21.28055387921165
 21
2.182566253750875
 31
0.0
  0
LINE
  5
16F
330
1F
100
AcDbEntity
  8
0
100
AcDbLine
 10
21.28055387921165
 20
2.182566253750875
 30
0.0
 11
21.48473397757664
 21
1.628384972174571
 31
0.0
  0
LINE
  5
170
330
1F
100
AcDbEntity
  8
0
100
AcDbLine
 10
21.48473397757664
 20
1.628384972174571
 30
0.0
 11
21.53852438281056
 21
1.040837460310067
 31
0.0
  0
LINE
  5
171
330
1F
100
AcDbEntity
  8
0
100
AcDbLine
 10
21.53852438281056
 20
1.040837460310067
 30
0.0
 11
21.43820474122522
 21
0.4599545027616032
 31
0.0
  0
LINE
  5
172
330
1F
100
AcDbEntity
  8
0
100
AcDbLine
 10
21.43820474122522
 20
0.4599545027616032
 30
0.0
 11
21.19055942859766
 21
-0.0746587137017177
 31
0.0
  0
LINE
  5
173
330
1F
100
AcDbEntity
  8
0
100
AcDbLine
 10
21.19055942859766
 20
-0.0746587137017177
 30
0.0
 11
20.81242921234482
 21
-0.526526698160191
 31
0.0
  0
LINE
  5
174
330
1F
100
AcDbEntity
  8
0
100
AcDbLine
 10
20.81242921234482
 20
-0.526526698160191
 30
0.0
 11
20.32957320288174
 21
-0.8648007793116891
 31
0.0
  0
LINE
  5
175
330
1F
100
AcDbEntity
  8
0
100
AcDbLine
 10
-0.9758333516304785
 20
-12.71568842492807
 30
0.0
 11
-1.02631294947177
 21
-11.7710370476511
 31
0.0
  0
LINE
  5
176
330
1F
100
AcDbEntity
  8
0
100
AcDbLine
 10
-1.02631294947177
 20
-11.7710370476511
 30
0.0
 11
-0.830917292631003
 21
-10.84580434969179
 31
0.0
  0
LINE
  5
177
330
1F
100
AcDbEntity
  8
0
100
AcDbLine
 10
-0.830917292631003
 20
-10.84580434969179
 30
0.0
 11
-0.4030920507623455
 21
-10.00298576006886
 31
0.0
  0
LINE
  5
178
330
1F
100
AcDbEntity
  8
0
100
AcDbLine
 10
-0.4030920507623455
 20
-10.00298576006886
 30
0.0
 11
0.2279235739579235
 21
-9.299903149964498
 31
0.0
  0
LINE
  5
179
330
1F
100
AcDbEntity
  8
0
100
AcDbLine
 10
0.2279235739579235
 20
-9.299903149964498
 30
0.0
 11
1.019111791088282
 21
-8.784329219023924
 31
0.0
  0
LINE
  5
17A
330
1F
100
AcDbEntity
  8
0
100
AcDbLine
 10
1.019111791088282
 20
-8.784329219023924
 30
0.0
 11
1.916611811125744
 21
-8.491269665750071
 31
0.0
  0
LINE
  5
17B
330
1F
100
AcDbEntity
  8
0
100
AcDbLine
 10
1.916611811125744
 20
-8.491269665750071
 30
0.0
 11
2.859374983922821
 21
-8.44061232554795
 31
0.0
  0
LINE
  5
17C
330
1F
100
AcDbEntity
  8
0
100
AcDbLine
 10
2.859374983922821
 20
-8.44061232554795
 30
0.0
 11
3.783294523261827
 21
-8.635794218830819
 31
0.0
  0
LINE
  5
17D
330
1F
100
AcDbEntity
  8
0
100
AcDbLine
 10
3.783294523261827
 20
-8.635794218830819
 30
0.0
 11
4.625536571256379
 21
-9.06357138437917
 31
0.0
  0
LINE
  5
17E
330
1F
100
AcDbEntity
  8
0
100
AcDbLine
 10
4.625536571256379
 20
-9.06357138437917
 30
0.0
 11
5.328787513512335
 21
-9.694906101524428
 31
0.0
  0
LINE
  5
17F
330
1F
100
AcDbEntity
  8
0
100
AcDbLine
 10
5.328787513512335
 20
-9.694906101524428
 30
0.0
 11
5.845137366543462
 21
-10.48691512421397
 31
0.0
  0
LINE
  5
180
330
1F
100
AcDbEntity
  8
0
100
AcDbLine
 10
5.845137366543462
 20
-10.48691512421397
 30
0.0
 11
6.139340597753554
 21
-11.38575432978352
 31
0.0
  0
LINE
  5
181
330
1F
100
AcDbEntity
  8
0
100
AcDbLine
 10
6.139340597753554
 20
-11.38575432978352
 30
0.0
 11
6.191233297136394
 21
-12.3302532886174
 31
0.0
  0
LINE
  5
182
330
1F
100
AcDbEntity
  8
0
100
AcDbLine
 10
6.191233297136394
 20
-12.3302532886174
 30
0.0
 11
5.99713792686658
 21
-13.25606138805677
 31
0.0
  0
LINE
  5
183
330
1F
100
AcDbEntity
  8
0
100
AcDbLine
 10
5.99713792686658
 20
-13.25606138805677
 30
0.0
 11
5.570151746056441
 21
-14.10002902093513
 31
0.0
  0
LINE
  5
184
330
1F
100
AcDbEntity
  8
0
100
AcDbLine
 10
5.570151746056441
 20
-14.10002902093513
 30
0.0
 11
4.939289131061404
 21
-14.80452643113382
 31
0.0
  0
LINE
  5
185
330
1F
100
AcDbEntity
  8
0
100
AcDbLine
 10
4.939289131061404
 20
-14.80452643113382
 30
0.0
 11
4.147526873208141
 21
-15.32140182452656
 31
0.0
  0
LINE
  5
186
330
1F
100
AcDbEntity
  8
0
100
AcDbLine
 10
4.147526873208141
 20
-15.32140182452656
 30
0.0
 11
3.248879575553006
 21
-15.61530077658318
 31
0.0
  0
LINE
  5
187
330
1F
100
AcDbEntity
  8
0
100
AcDbLine
 10
3.248879575553006
 20
-15.61530077658318
 30
0.0
 11
2.304703300442417
 21
-15.66611053539688
 31
0.0
  0
LINE
  5
188
330
1F
100
AcDbEntity
  8
0
100
AcDbLine
 10
2.304703300442417
 20
-15.66611053539688
 30
0.0
 11
1.379483474000356
 21
-15.47035324004884
 31
0.0
  0
LINE
  5
189
330
1F
100
AcDbEntity
  8
0
100
AcDbLine
 10
1.379483474000356
 20
-15.47035324004884
 30
0.0
 11
0.5364023651871583
 21
-15.04142703049142
 31
0.0
  0
LINE
  5
18A
330
1F
100
AcDbEntity
  8
0
100
AcDbLine
 10
0.5364023651871583
 20
-15.04142703049142
 30
0.0
 11
-0.1670015860220686
 21
-14.40867751308333
 31
0.0
  0
LINE
  5
18B
330
1F
100
AcDbEntity
  8
0
100
AcDbLine
 10
0.5276166996986055
 20
-15.01131581222959
 30
0.0
 11
-0.164266644684492
 21
-14.3889325895669
 31
0.0
  0
LINE
  5
18C
330
1F
100
AcDbEntity
  8
0
100
AcDbLine
 10
1.356887096699908
 20
-15.4332134161839
 30
0.0
 11
0.5276166996986055
 21
-15.01131581222959
 31
0.0
  0
LINE
  5
18D
330
1F
100
AcDbEntity
  8
0
100
AcDbLine
 10
2.266950007803595
 20
-15.62576251953938
 30
0.0
 11
1.356887096699908
 21
-15.4332134161839
 31
0.0
  0
LINE
  5
18E
330
1F
100
AcDbEntity
  8
0
100
AcDbLine
 10
3.195660309154051
 20
-15.57578548739806
 30
0.0
 11
2.266950007803595
 21
-15.62576251953938
 31
0.0
  0
LINE
  5
18F
330
1F
100
AcDbEntity
  8
0
100
AcDbLine
 10
4.079591148622232
 20
-15.28670293578361
 30
0.0
 11
3.195660309154051
 21
-15.57578548739806
 31
0.0
  0
LINE
  5
190
330
1F
100
AcDbEntity
  8
0
100
AcDbLine
 10
4.858393092734452
 20
-14.77829665630241
 30
0.0
 11
4.079591148622232
 21
-15.28670293578361
 31
0.0
  0
LINE
  5
191
330
1F
100
AcDbEntity
  8
0
100
AcDbLine
 10
5.478936621707219
 20
-14.0853396864114
 30
0.0
 11
4.858393092734452
 21
-14.77829665630241
 31
0.0
  0
LINE
  5
192
330
1F
100
AcDbEntity
  8
0
100
AcDbLine
 10
5.89894766723984
 20
-13.25519276377699
 30
0.0
 11
5.478936621707219
 21
-14.0853396864114
 31
0.0
  0
LINE
  5
193
330
1F
100
AcDbEntity
  8
0
100
AcDbLine
 10
6.089884464406962
 20
-12.34454006081309
 30
0.0
 11
5.89894766723984
 21
-13.25519276377699
 31
0.0
  0
LINE
  5
194
330
1F
100
AcDbEntity
  8
0
100
AcDbLine
 10
6.038860781546073
 20
-11.41549651133543
 30
0.0
 11
6.089884464406962
 21
-12.34454006081309
 31
0.0
  0
LINE
  5
195
330
1F
100
AcDbEntity
  8
0
100
AcDbLine
 10
5.749490352465353
 20
-10.53135997158941
 30
0.0
 11
6.038860781546073
 21
-11.41549651133543
 31
0.0
  0
LINE
  5
196
330
1F
100
AcDbEntity
  8
0
100
AcDbLine
 10
5.241604027043815
 20
-9.75230163709784
 30
0.0
 11
5.749490352465353
 21
-10.53135997158941
 31
0.0
  0
LINE
  5
197
330
1F
100
AcDbEntity
  8
0
100
AcDbLine
 10
4.54986871136493
 20
-9.131287282017093
 30
0.0
 11
5.241604027043815
 21
-9.75230163709784
 31
0.0
  0
LINE
  5
198
330
1F
100
AcDbEntity
  8
0
100
AcDbLine
 10
3.721410121335343
 20
-8.710501417381659
 30
0.0
 11
4.54986871136493
 21
-9.131287282017093
 31
0.0
  0
LINE
  5
199
330
1F
100
AcDbEntity
  8
0
100
AcDbLine
 10
2.812605272530576
 20
-8.518509035171071
 30
0.0
 11
3.721410121335343
 21
-8.710501417381659
 31
0.0
  0
LINE
  5
19A
330
1F
100
AcDbEntity
  8
0
100
AcDbLine
 10
1.885262191846904
 20
-8.56833859710165
 30
0.0
 11
2.812605272530576
 21
-8.518509035171071
 31
0.0
  0
LINE
  5
19B
330
1F
100
AcDbEntity
  8
0
100
AcDbLine
 10
1.002441385475317
 20
-8.856609001731304
 30
0.0
 11
1.885262191846904
 21
-8.56833859710165
 31
0.0
  0
LINE
  5
19C
330
1F
100
AcDbEntity
  8
0
100
AcDbLine
 10
0.2241948543355202
 20
-9.363756071840594
 30
0.0
 11
1.002441385475317
 21
-8.856609001731304
 31
0.0
  0
LINE
  5
19D
330
1F
100
AcDbEntity
  8
0
100
AcDbLine
 10
-0.3964967040641058
 20
-10.0553441743074
 30
0.0
 11
0.2241948543355202
 21
-9.363756071840594
 31
0.0
  0
LINE
  5
19E
330
1F
100
AcDbEntity
  8
0
100
AcDbLine
 10
-0.8173195567929962
 20
-10.88437935832843
 30
0.0
 11
-0.3964967040641058
 21
-10.0553441743074
 31
0.0
  0
LINE
  5
19F
330
1F
100
AcDbEntity
  8
0
100
AcDbLine
 10
-1.009514415760932
 20
-11.79447534069518
 30
0.0
 11
-0.8173195567929962
 21
-10.88437935832843
 31
0.0
  0
LINE
  5
1A0
330
1F
100
AcDbEntity
  8
0
100
AcDbLine
 10
-0.9598579528441824
 20
-12.72366636022585
 30
0.0
 11
-1.009514415760932
 21
-11.79447534069518
 31
0.0
  0
LINE
  5
1A1
330
1F
100
AcDbEntity
  8
0
100
AcDbLine
 10
1.007506046052621
 20
-10.39414563320682
 30
0.0
 11
1.492702004960609
 21
-10.05451728534859
 31
0.0
  0
LINE
  5
1A2
330
1F
100
AcDbEntity
  8
0
100
AcDbLine
 10
1.492702004960609
 20
-10.05451728534859
 30
0.0
 11
2.049180065372112
 21
-9.852180929354613
 31
0.0
  0
LINE
  5
1A3
330
1F
100
AcDbEntity
  8
0
100
AcDbLine
 10
2.049180065372112
 20
-9.852180929354613
 30
0.0
 11
2.639059924686462
 21
-9.800889627806745
 31
0.0
  0
LINE
  5
1A4
330
1F
100
AcDbEntity
  8
0
100
AcDbLine
 10
2.639059924686462
 20
-9.800889627806745
 30
0.0
 11
3.222197173131505
 21
-9.90412917275696
 31
0.0
  0
LINE
  5
1A5
330
1F
100
AcDbEntity
  8
0
100
AcDbLine
 10
3.222197173131505
 20
-9.90412917275696
 30
0.0
 11
3.758904366681309
 21
-10.15488310972082
 31
0.0
  0
LINE
  5
1A6
330
1F
100
AcDbEntity
  8
0
100
AcDbLine
 10
3.758904366681309
 20
-10.15488310972082
 30
0.0
 11
4.212641635345538
 21
-10.53610577435932
 31
0.0
  0
LINE
  5
1A7
330
1F
100
AcDbEntity
  8
0
100
AcDbLine
 10
4.212641635345538
 20
-10.53610577435932
 30
0.0
 11
4.552497216248311
 21
-11.02187247317007
 31
0.0
  0
LINE
  5
1A8
330
1F
100
AcDbEntity
  8
0
100
AcDbLine
 10
4.552497216248311
 20
-11.02187247317007
 30
0.0
 11
4.755291436781135
 21
-11.5791314850005
 31
0.0
  0
LINE
  5
1A9
330
1F
100
AcDbEntity
  8
0
100
AcDbLine
 10
4.755291436781135
 20
-11.5791314850005
 30
0.0
 11
4.807161466891541
 21
-12.16994242433389
 31
0.0
  0
LINE
  5
1AA
330
1F
100
AcDbEntity
  8
0
100
AcDbLine
 10
4.807161466891541
 20
-12.16994242433389
 30
0.0
 11
4.704517485946456
 21
-12.75405218967095
 31
0.0
  0
LINE
  5
1AB
330
1F
100
AcDbEntity
  8
0
100
AcDbLine
 10
4.704517485946456
 20
-12.75405218967095
 30
0.0
 11
4.454302046398471
 21
-13.29163553444589
 31
0.0
  0
LINE
  5
1AC
330
1F
100
AcDbEntity
  8
0
100
AcDbLine
 10
4.073531016406074
 20
-13.74601420398146
 30
0.0
 11
3.58814361168215
 21
-14.08616797219299
 31
0.0
  0
LINE
  5
1AD
330
1F
100
AcDbEntity
  8
0
100
AcDbLine
 10
3.58814361168215
 20
-14.08616797219299
 30
0.0
 11
3.031237294118608
 21
-14.28886338297806
 31
0.0
  0
LINE
  5
1AE
330
1F
100
AcDbEntity
  8
0
100
AcDbLine
 10
3.031237294118608
 20
-14.28886338297806
 30
0.0
 11
2.440807117482018
 21
-14.34025116526949
 31
0.0
  0
LINE
  5
1AF
330
1F
100
AcDbEntity
  8
0
100
AcDbLine
 10
2.440807117482018
 20
-14.34025116526949
 30
0.0
 11
1.857144948668632
 21
-14.23681967506273
 31
0.0
  0
LINE
  5
1B0
330
1F
100
AcDbEntity
  8
0
100
AcDbLine
 10
1.32007888372736
 20
-13.98563679844759
 30
0.0
 11
0.8662449519402079
 21
-13.60386313384025
 31
0.0
  0
LINE
  5
1B1
330
1F
100
AcDbEntity
  8
0
100
AcDbLine
 10
0.5265808169467787
 20
-13.11757101475501
 30
0.0
 11
0.324214853544555
 21
-12.55995294825381
 31
0.0
  0
LINE
  5
1B2
330
1F
100
AcDbEntity
  8
0
100
AcDbLine
 10
0.324214853544555
 20
-12.55995294825381
 30
0.0
 11
0.2728951406415666
 21
-11.96904552821842
 31
0.0
  0
LINE
  5
1B3
330
1F
100
AcDbEntity
  8
0
100
AcDbLine
 10
0.3760640418616013
 20
-11.38512770805908
 30
0.0
 11
0.6266383528224949
 21
-10.8479733028151
 31
0.0
  0
LINE
  5
1B4
330
1F
100
AcDbEntity
  8
0
100
AcDbLine
 10
0.6266383528224949
 20
-10.8479733028151
 30
0.0
 11
1.007506046052621
 21
-10.39414563320682
 31
0.0
  0
LINE
  5
1B5
330
1F
100
AcDbEntity
  8
0
100
AcDbLine
 10
-14.28895454634252
 20
-0.6089888778766653
 30
0.0
 11
-15.14173115074303
 21
-0.2106578681185617
 31
0.0
  0
LINE
  5
1B6
330
1F
100
AcDbEntity
  8
0
100
AcDbLine
 10
-15.86136309600331
 20
0.3947193756584568
 30
0.0
 11
-16.39878480334098
 21
1.165748496075725
 31
0.0
  0
LINE
  5
1B7
330
1F
100
AcDbEntity
  8
0
100
AcDbLine
 10
-16.39878480334098
 20
1.165748496075725
 30
0.0
 11
-16.71742085641819
 21
2.049752798370491
 31
0.0
  0
LINE
  5
1B8
330
1F
100
AcDbEntity
  8
0
100
AcDbLine
 10
-16.71742085641819
 20
2.049752798370491
 30
0.0
 11
-16.79566536712965
 21
2.986398555569168
 31
0.0
  0
LINE
  5
1B9
330
1F
100
AcDbEntity
  8
0
100
AcDbLine
 10
-16.79566536712965
 20
2.986398555569168
 30
0.0
 11
-16.62832521713232
 21
3.911830814004852
 31
0.0
  0
LINE
  5
1BA
330
1F
100
AcDbEntity
  8
0
100
AcDbLine
 10
-16.62832521713232
 20
3.911830814004852
 30
0.0
 11
-16.22693666792
 21
4.763031395931939
 31
0.0
  0
LINE
  5
1BB
330
1F
100
AcDbEntity
  8
0
100
AcDbLine
 10
-16.22693666792
 20
4.763031395931939
 30
0.0
 11
-15.6189437650037
 21
5.482100432299585
 31
0.0
  0
LINE
  5
1BC
330
1F
100
AcDbEntity
  8
0
100
AcDbLine
 10
-15.6189437650037
 20
5.482100432299585
 30
0.0
 11
-14.84580399771822
 21
6.020173176320009
 31
0.0
  0
LINE
  5
1BD
330
1F
100
AcDbEntity
  8
0
100
AcDbLine
 10
-14.84580399771822
 20
6.020173176320009
 30
0.0
 11
-13.96015672459482
 21
6.340712944731004
 31
0.0
  0
LINE
  5
1BE
330
1F
100
AcDbEntity
  8
0
100
AcDbLine
 10
-13.96015672459482
 20
6.340712944731004
 30
0.0
 11
-13.0222489908491
 21
6.42196570287572
 31
0.0
  0
LINE
  5
1BF
330
1F
100
AcDbEntity
  8
0
100
AcDbLine
 10
-13.0222489908491
 20
6.42196570287572
 30
0.0
 11
-12.09585879215473
 21
6.258418447575838
 31
0.0
  0
LINE
  5
1C0
330
1F
100
AcDbEntity
  8
0
100
AcDbLine
 10
-12.09585879215473
 20
6.258418447575838
 30
0.0
 11
-11.24398585607576
 21
5.861168431256253
 31
0.0
  0
LINE
  5
1C1
330
1F
100
AcDbEntity
  8
0
100
AcDbLine
 10
-11.24398585607576
 20
5.861168431256253
 30
0.0
 11
-10.52459369060296
 21
5.257179791344099
 31
0.0
  0
LINE
  5
1C2
330
1F
100
AcDbEntity
  8
0
100
AcDbLine
 10
-10.52459369060296
 20
5.257179791344099
 30
0.0
 11
-9.986683625987192
 21
4.487474809836974
 31
0.0
  0
LINE
  5
1C3
330
1F
100
AcDbEntity
  8
0
100
AcDbLine
 10
-9.66696193372246
 20
3.604375379729751
 30
0.0
 11
-9.587325398006577
 21
2.66797276850474
 31
0.0
  0
LINE
  5
1C4
330
1F
100
AcDbEntity
  8
0
100
AcDbLine
 10
-9.587325398006577
 20
2.66797276850474
 30
0.0
 11
-9.753340128889448
 21
1.74205677915842
 31
0.0
  0
LINE
  5
1C5
330
1F
100
AcDbEntity
  8
0
100
AcDbLine
 10
-9.753340128889448
 20
1.74205677915842
 30
0.0
 11
-10.15382500964077
 21
0.8897752045594943
 31
0.0
  0
LINE
  5
1C6
330
1F
100
AcDbEntity
  8
0
100
AcDbLine
 10
-10.15382500964077
 20
0.8897752045594943
 30
0.0
 11
-10.7615781320349
 21
0.1693175645916236
 31
0.0
  0
LINE
  5
1C7
330
1F
100
AcDbEntity
  8
0
100
AcDbLine
 10
-10.7615781320349
 20
0.1693175645916236
 30
0.0
 11
-11.53520625600325
 21
-0.3700793188409924
 31
0.0
  0
LINE
  5
1C8
330
1F
100
AcDbEntity
  8
0
100
AcDbLine
 10
-11.53520625600325
 20
-0.3700793188409924
 30
0.0
 11
-12.42193916845364
 21
-0.6915239602062097
 31
0.0
  0
LINE
  5
1C9
330
1F
100
AcDbEntity
  8
0
100
AcDbLine
 10
-12.42193916845364
 20
-0.6915239602062097
 30
0.0
 11
-13.36123892793847
 21
-0.773019864589238
 31
0.0
  0
LINE
  5
1CA
330
1F
100
AcDbEntity
  8
0
100
AcDbLine
 10
-13.36123892793847
 20
-0.773019864589238
 30
0.0
 11
-14.28895454634252
 21
-0.6089888778766653
 31
0.0
  0
LINE
  5
1CB
330
1F
100
AcDbEntity
  8
0
100
AcDbLine
 10
-10.35293291186733
 20
4.956085951430146
 30
0.0
 11
-9.945014870232722
 21
4.372382042125794
 31
0.0
  0
LINE
  5
1CC
330
1F
100
AcDbEntity
  8
0
100
AcDbLine
 10
-11.06061436869845
 20
5.550262089283656
 30
0.0
 11
-10.35293291186733
 21
4.956085951430146
 31
0.0
  0
LINE
  5
1CD
330
1F
100
AcDbEntity
  8
0
100
AcDbLine
 10
-11.89861081477711
 20
5.941059655373896
 30
0.0
 11
-11.06061436869845
 21
5.550262089283656
 31
0.0
  0
LINE
  5
1CE
330
1F
100
AcDbEntity
  8
0
100
AcDbLine
 10
-12.80990148684638
 20
6.101950755510652
 30
0.0
 11
-11.89861081477711
 21
5.941059655373896
 31
0.0
  0
LINE
  5
1CF
330
1F
100
AcDbEntity
  8
0
100
AcDbLine
 10
-13.73251138949225
 20
6.022017593011373
 30
0.0
 11
-12.80990148684638
 21
6.101950755510652
 31
0.0
  0
LINE
  5
1D0
330
1F
100
AcDbEntity
  8
0
100
AcDbLine
 10
-14.60370055576332
 20
5.706684025285537
 30
0.0
 11
-13.73251138949225
 21
6.022017593011373
 31
0.0
  0
LINE
  5
1D1
330
1F
100
AcDbEntity
  8
0
100
AcDbLine
 10
-15.36420372672339
 20
5.177352205977329
 30
0.0
 11
-14.60370055576332
 21
5.706684025285537
 31
0.0
  0
LINE
  5
1D2
330
1F
100
AcDbEntity
  8
0
100
AcDbLine
 10
-15.96224111943823
 20
4.469967404366942
 30
0.0
 11
-15.36420372672339
 21
5.177352205977329
 31
0.0
  0
LINE
  5
1D3
330
1F
100
AcDbEntity
  8
0
100
AcDbLine
 10
-16.35703445700354
 20
3.632602584223386
 30
0.0
 11
-15.96224111943823
 21
4.469967404366942
 31
0.0
  0
LINE
  5
1D4
330
1F
100
AcDbEntity
  8
0
100
AcDbLine
 10
-16.52159205478821
 20
2.722218222864527
 30
0.0
 11
-16.35703445700354
 21
3.632602584223386
 31
0.0
  0
LINE
  5
1D5
330
1F
100
AcDbEntity
  8
0
100
AcDbLine
 10
-16.44457155678215
 20
1.80080857895857
 30
0.0
 11
-16.52159205478821
 21
2.722218222864527
 31
0.0
  0
LINE
  5
1D6
330
1F
100
AcDbEntity
  8
0
100
AcDbLine
 10
-16.1310871720687
 20
0.9311895147057317
 30
0.0
 11
-16.44457155678215
 21
1.80080857895857
 31
0.0
  0
LINE
  5
1D7
330
1F
100
AcDbEntity
  8
0
100
AcDbLine
 10
-15.60940351053786
 20
0.1827629715592718
 30
0.0
 11
-16.1310871720687
 21
0.9311895147057317
 31
0.0
  0
LINE
  5
1D8
330
1F
100
AcDbEntity
  8
0
100
AcDbLine
 10
-15.86136309600331
 20
0.3947193756584568
 30
0.0
 11
-15.60940351053786
 21
0.1827629715592718
 31
0.0
  0
LINE
  5
1D9
330
1F
100
AcDbEntity
  8
0
100
AcDbLine
 10
-11.93792799257706
 20
0.5612660565564302
 30
0.0
 11
-12.49378370480412
 21
0.3598114378929847
 31
0.0
  0
LINE
  5
1DA
330
1F
100
AcDbEntity
  8
0
100
AcDbLine
 10
-12.49378370480412
 20
0.3598114378929847
 30
0.0
 11
-13.08257034310982
 21
0.3087382322491471
 31
0.0
  0
LINE
  5
1DB
330
1F
100
AcDbEntity
  8
0
100
AcDbLine
 10
-13.08257034310982
 20
0.3087382322491471
 30
0.0
 11
-13.66410835069854
 21
0.4115365572631951
 31
0.0
  0
LINE
  5
1DC
330
1F
100
AcDbEntity
  8
0
100
AcDbLine
 10
-14.19871477286226
 20
0.6611818520437899
 30
0.0
 11
-14.64992155890784
 21
1.040618695129067
 31
0.0
  0
LINE
  5
1DD
330
1F
100
AcDbEntity
  8
0
100
AcDbLine
 10
-14.64992155890784
 20
1.040618695129067
 30
0.0
 11
-14.98697031755541
 21
1.523934508505566
 31
0.0
  0
LINE
  5
1DE
330
1F
100
AcDbEntity
  8
0
100
AcDbLine
 10
-14.98697031755541
 20
1.523934508505566
 30
0.0
 11
-15.18691095962369
 21
2.078140096606567
 31
0.0
  0
LINE
  5
1DF
330
1F
100
AcDbEntity
  8
0
100
AcDbLine
 10
-15.18691095962369
 20
2.078140096606567
 30
0.0
 11
-15.23616054139313
 21
2.665431748715208
 31
0.0
  0
LINE
  5
1E0
330
1F
100
AcDbEntity
  8
0
100
AcDbLine
 10
-15.23616054139313
 20
2.665431748715208
 30
0.0
 11
-15.1314174697065
 21
3.245777007757463
 31
0.0
  0
LINE
  5
1E1
330
1F
100
AcDbEntity
  8
0
100
AcDbLine
 10
-15.1314174697065
 20
3.245777007757463
 30
0.0
 11
-14.87987184337593
 21
3.779645346568032
 31
0.0
  0
LINE
  5
1E2
330
1F
100
AcDbEntity
  8
0
100
AcDbLine
 10
-14.87987184337593
 20
3.779645346568032
 30
0.0
 11
-14.49870152609861
 21
4.230696991571647
 31
0.0
  0
LINE
  5
1E3
330
1F
100
AcDbEntity
  8
0
100
AcDbLine
 10
-14.49870152609861
 20
4.230696991571647
 30
0.0
 11
-14.01389202146878
 21
4.568248034016466
 31
0.0
  0
LINE
  5
1E4
330
1F
100
AcDbEntity
  8
0
100
AcDbLine
 10
-14.01389202146878
 20
4.568248034016466
 30
0.0
 11
-13.4584631052696
 21
4.769346888298902
 31
0.0
  0
LINE
  5
1E5
330
1F
100
AcDbEntity
  8
0
100
AcDbLine
 10
-13.4584631052696
 20
4.769346888298902
 30
0.0
 11
-12.8702237285326
 21
4.820324497357341
 31
0.0
  0
LINE
  5
1E6
330
1F
100
AcDbEntity
  8
0
100
AcDbLine
 10
-12.8702237285326
 20
4.820324497357341
 30
0.0
 11
-12.28920680971648
 21
4.717716358596356
 31
0.0
  0
LINE
  5
1E7
330
1F
100
AcDbEntity
  8
0
100
AcDbLine
 10
-12.28920680971648
 20
4.717716358596356
 30
0.0
 11
-11.75495567817975
 21
4.468496072625934
 31
0.0
  0
LINE
  5
1E8
330
1F
100
AcDbEntity
  8
0
100
AcDbLine
 10
-11.75495567817975
 20
4.468496072625934
 30
0.0
 11
-11.3038431847869
 21
4.089605180097118
 31
0.0
  0
LINE
  5
1E9
330
1F
100
AcDbEntity
  8
0
100
AcDbLine
 10
-11.3038431847869
 20
4.089605180097118
 30
0.0
 11
-10.96660245521919
 21
3.606809971997688
 31
0.0
  0
LINE
  5
1EA
330
1F
100
AcDbEntity
  8
0
100
AcDbLine
 10
-10.76623501714458
 20
3.05296014815919
 30
0.0
 11
-10.71643817391999
 21
2.465764092595026
 31
0.0
  0
LINE
  5
1EB
330
1F
100
AcDbEntity
  8
0
100
AcDbLine
 10
-10.71643817391999
 20
2.465764092595026
 30
0.0
 11
-10.82066015692603
 21
1.885228647377325
 31
0.0
  0
LINE
  5
1EC
330
1F
100
AcDbEntity
  8
0
100
AcDbLine
 10
-10.82066015692603
 20
1.885228647377325
 30
0.0
 11
-11.07185049260804
 21
1.350935299875085
 31
0.0
  0
LINE
  5
1ED
330
1F
100
AcDbEntity
  8
0
100
AcDbLine
 10
-11.07185049260804
 20
1.350935299875085
 30
0.0
 11
-11.45292651711909
 21
0.8993377043559052
 31
0.0
  0
LINE
  5
1EE
330
1F
100
AcDbEntity
  8
0
100
AcDbLine
 10
-11.45292651711909
 20
0.8993377043559052
 30
0.0
 11
-11.93792799257706
 21
0.5612660565564302
 31
0.0
  0
LINE
  5
1EF
330
1F
100
AcDbEntity
  8
0
100
AcDbLine
 10
-13.08657265013619
 20
16.71048029754754
 30
0.0
 11
-13.36186149744105
 21
17.10375088381467
 31
0.0
  0
LINE
  5
1F0
330
1F
100
AcDbEntity
  8
0
100
AcDbLine
 10
-13.36186149744105
 20
17.10375088381467
 30
0.0
 11
-13.4035067395934
 21
17.16324420857822
 31
0.0
  0
LINE
  5
1F1
330
1F
100
AcDbEntity
  8
0
100
AcDbLine
 10
-9.436928165269189
 20
18.59565174720124
 30
0.0
 11
-9.431499188747507
 21
18.53205252603717
 31
0.0
  0
LINE
  5
1F2
330
1F
100
AcDbEntity
  8
0
100
AcDbLine
 10
-9.431499188747507
 20
18.53205252603717
 30
0.0
 11
-9.389970522339826
 21
18.04555367510964
 31
0.0
  0
LINE
  5
1F3
330
1F
100
AcDbEntity
  8
0
100
AcDbLine
 10
17.22983430430509
 20
17.42159929947674
 30
0.0
 11
17.37248740505165
 21
17.72787622587789
 31
0.0
  0
LINE
  5
1F4
330
1F
100
AcDbEntity
  8
0
100
AcDbLine
 10
17.37248740505165
 20
17.72787622587789
 30
0.0
 11
17.46291926950354
 21
17.92203389471301
 31
0.0
  0
LINE
  5
1F5
330
1F
100
AcDbEntity
  8
0
100
AcDbLine
 10
21.05852522912997
 20
15.64547711221917
 30
0.0
 11
20.91514414995748
 21
15.47470682292866
 31
0.0
  0
LINE
  5
1F6
330
1F
100
AcDbEntity
  8
0
100
AcDbLine
 10
20.91514414995748
 20
15.47470682292866
 30
0.0
 11
20.70312455332176
 21
15.22218642022489
 31
0.0
  0
LINE
  5
1F7
330
1F
100
AcDbEntity
  8
0
100
AcDbLine
 10
17.02024155645196
 20
-12.1399558462548
 30
0.0
 11
17.29632705193869
 21
-12.0394079468089
 31
0.0
  0
LINE
  5
1F8
330
1F
100
AcDbEntity
  8
0
100
AcDbLine
 10
17.29632705193869
 20
-12.0394079468089
 30
0.0
 11
17.54459626442797
 21
-11.94899049199522
 31
0.0
  0
LINE
  5
1F9
330
1F
100
AcDbEntity
  8
0
100
AcDbLine
 10
17.37686668505176
 20
-16.08701385745976
 30
0.0
 11
17.12757956433146
 21
-15.97055538331215
 31
0.0
  0
LINE
  5
1FA
330
1F
100
AcDbEntity
  8
0
100
AcDbLine
 10
17.12757956433146
 20
-15.97055538331215
 30
0.0
 11
16.86945950175736
 21
-15.84997045879856
 31
0.0
  0
LINE
  5
1FB
330
1F
100
AcDbEntity
  8
0
100
AcDbLine
 10
-12.30933284557713
 20
-10.62648861091283
 30
0.0
 11
-12.14460425495285
 21
-10.70357995809561
 31
0.0
  0
LINE
  5
1FC
330
1F
100
AcDbEntity
  8
0
100
AcDbLine
 10
-12.14460425495285
 20
-10.70357995809561
 30
0.0
 11
-11.8039255335123
 21
-10.86301422201318
 31
0.0
  0
LINE
  5
1FD
330
1F
100
AcDbEntity
  8
0
100
AcDbLine
 10
-11.97705000653495
 20
-14.57104463826616
 30
0.0
 11
-12.32212162594612
 21
-14.69650325288246
 31
0.0
  0
LINE
  5
1FE
330
1F
100
AcDbEntity
  8
0
100
AcDbLine
 10
-12.32212162594612
 20
-14.69650325288246
 30
0.0
 11
-12.50287358203159
 21
-14.76221972657671
 31
0.0
  0
LINE
  5
1FF
330
1F
100
AcDbEntity
  8
0
100
AcDbLine
 10
9.024793822088988
 20
-4.244593755265477
 30
0.0
 11
8.938338793982481
 21
-4.305103880920209
 31
0.0
  0
LINE
  5
200
330
1F
100
AcDbEntity
  8
0
100
AcDbLine
 10
8.938338793982481
 20
-4.305103880920209
 30
0.0
 11
7.182513652054049
 21
-5.534011005152928
 31
0.0
  0
LINE
  5
201
330
1F
100
AcDbEntity
  8
0
100
AcDbLine
 10
-3.154375562682088
 20
-3.705895364964906
 30
0.0
 11
-4.40217883336896
 21
-1.920984335520183
 31
0.0
  0
LINE
  5
202
330
1F
100
AcDbEntity
  8
0
100
AcDbLine
 10
-4.40217883336896
 20
-1.920984335520183
 30
0.0
 11
-4.442217472791445
 21
-1.863711357649388
 31
0.0
  0
LINE
  5
203
330
1F
100
AcDbEntity
  8
0
100
AcDbLine
 10
-5.085073341189174
 20
-0.0700064371803051
 30
0.0
 11
-5.207965228429955
 21
0.2473812034542561
 31
0.0
  0
LINE
  5
204
330
1F
100
AcDbEntity
  8
0
100
AcDbLine
 10
7.245109678705782
 20
-0.8806428095793175
 30
0.0
 11
7.124383554980408
 21
-1.024432739257795
 31
0.0
  0
LINE
  5
205
330
1F
100
AcDbEntity
  8
0
100
AcDbLine
 10
-1.207986346627866
 20
-0.5070104364836003
 30
0.0
 11
-1.622407881928401
 21
0.6330516456705657
 31
0.0
  0
LINE
  5
206
330
1F
100
AcDbEntity
  8
0
100
AcDbLine
 10
-1.622407881928401
 20
0.6330516456705657
 30
0.0
 11
-1.643005385064695
 21
0.6897148021730639
 31
0.0
  0
LINE
  5
207
330
1F
100
AcDbEntity
  8
0
100
AcDbLine
 10
16.54757911076323
 20
3.315776994836004
 30
0.0
 11
16.97745760323046
 21
3.828521803732067
 31
0.0
  0
LINE
  5
208
330
1F
100
AcDbEntity
  8
0
100
AcDbLine
 10
16.97745760323046
 20
3.828521803732067
 30
0.0
 11
17.15080377444568
 21
4.035283367732356
 31
0.0
  0
LINE
  5
209
330
1F
100
AcDbEntity
  8
0
100
AcDbLine
 10
21.27609558122846
 20
-1.820457589239816
 30
0.0
 11
21.10524850029035
 21
-1.882564311993188
 31
0.0
  0
LINE
  5
20A
330
1F
100
AcDbEntity
  8
0
100
AcDbLine
 10
21.10524850029035
 20
-1.882564311993188
 30
0.0
 11
20.39130699672764
 21
-2.142097965014492
 31
0.0
  0
LINE
  5
20B
330
1F
100
AcDbEntity
  8
0
100
AcDbLine
 10
19.77491606306902
 20
-1.066376033480956
 30
0.0
 11
19.7003557324524
 21
-1.072849370860365
 31
0.0
  0
LINE
  5
20C
330
1F
100
AcDbEntity
  8
0
100
AcDbLine
 10
19.7003557324524
 20
-1.072849370860365
 30
0.0
 11
19.18629920723414
 21
-1.117479823707134
 31
0.0
  0
LINE
  5
20D
330
1F
100
AcDbEntity
  8
0
100
AcDbLine
 10
17.11693903274168
 20
1.821317229596712
 30
0.0
 11
17.28256129815214
 21
2.178059484559732
 31
0.0
  0
LINE
  5
20E
330
1F
100
AcDbEntity
  8
0
100
AcDbLine
 10
17.28256129815214
 20
2.178059484559732
 30
0.0
 11
17.36494272921127
 21
2.355505055723028
 31
0.0
  0
LINE
  5
20F
330
1F
100
AcDbEntity
  8
0
100
AcDbLine
 10
-0.1670015860220686
 20
-14.40867751308333
 30
0.0
 11
-0.164266644684492
 21
-14.3889325895669
 31
0.0
  0
LINE
  5
210
330
1F
100
AcDbEntity
  8
0
100
AcDbLine
 10
-0.164266644684492
 20
-14.3889325895669
 30
0.0
 11
-0.682777397798204
 21
-13.61536702852678
 31
0.0
  0
LINE
  5
211
330
1F
100
AcDbEntity
  8
0
100
AcDbLine
 10
-0.682777397798204
 20
-13.61536702852678
 30
0.0
 11
-0.9598579528441824
 21
-12.72366636022585
 31
0.0
  0
LINE
  5
212
330
1F
100
AcDbEntity
  8
0
100
AcDbLine
 10
-0.9598579528441824
 20
-12.72366636022585
 30
0.0
 11
-0.9758333516304785
 21
-12.71568842492807
 31
0.0
  0
LINE
  5
213
330
1F
100
AcDbEntity
  8
0
100
AcDbLine
 10
1.737630524646455
 20
-14.17028995898423
 30
0.0
 11
1.32007888372736
 21
-13.98563679844759
 31
0.0
  0
LINE
  5
214
330
1F
100
AcDbEntity
  8
0
100
AcDbLine
 10
0.2728951406415666
 20
-11.96904552821842
 30
0.0
 11
0.3575575528690083
 21
-11.48987117807346
 31
0.0
  0
LINE
  5
215
330
1F
100
AcDbEntity
  8
0
100
AcDbLine
 10
0.3575575528690083
 20
-11.48987117807346
 30
0.0
 11
0.3760640418616013
 21
-11.38512770805908
 31
0.0
  0
LINE
  5
216
330
1F
100
AcDbEntity
  8
0
100
AcDbLine
 10
-15.14173115074303
 20
-0.2106578681185617
 30
0.0
 11
-15.60940351053786
 21
0.1827629715592718
 31
0.0
  0
LINE
  5
217
330
1F
100
AcDbEntity
  8
0
100
AcDbLine
 10
-9.986683625987192
 20
4.487474809836974
 30
0.0
 11
-9.945014870232722
 21
4.372382042125794
 31
0.0
  0
LINE
  5
218
330
1F
100
AcDbEntity
  8
0
100
AcDbLine
 10
-9.945014870232722
 20
4.372382042125794
 30
0.0
 11
-9.66696193372246
 21
3.604375379729751
 31
0.0
  0
LINE
  5
219
330
1F
100
AcDbEntity
  8
0
100
AcDbLine
 10
-13.66410835069854
 20
0.4115365572631951
 30
0.0
 11
-14.02598206250621
 21
0.5805208150503359
 31
0.0
  0
LINE
  5
21A
330
1F
100
AcDbEntity
  8
0
100
AcDbLine
 10
-14.02598206250621
 20
0.5805208150503359
 30
0.0
 11
-14.19871477286226
 21
0.6611818520437899
 31
0.0
  0
LINE
  5
21B
330
1F
100
AcDbEntity
  8
0
100
AcDbLine
 10
-10.96660245521919
 20
3.606809971997688
 30
0.0
 11
-10.81044185484122
 21
3.175155398575206
 31
0.0
  0
LINE
  5
21C
330
1F
100
AcDbEntity
  8
0
100
AcDbLine
 10
-10.81044185484122
 20
3.175155398575206
 30
0.0
 11
-10.76623501714458
 21
3.05296014815919
 31
0.0
  0
LINE
  5
21D
330
1F
100
AcDbEntity
  8
0
100
AcDbLine
 10
-4.442217472791445
 20
-1.863711357649388
 30
0.0
 11
-4.903256383990859
 21
-0.5395773451399747
 31
0.0
  0
LINE
  5
21E
330
1F
100
AcDbEntity
  8
0
100
AcDbLine
 10
-4.903256383990859
 20
-0.5395773451399747
 30
0.0
 11
-5.085073341189174
 21
-0.0700064371803051
 31
0.0
  0
LINE
  5
21F
330
1F
100
AcDbEntity
  8
0
100
AcDbLine
 10
3.811408812727317
 20
-13.71107306688385
 30
0.0
 11
4.167703620011325
 21
-13.28593311058164
 31
0.0
  0
LINE
  5
220
330
1F
100
AcDbEntity
  8
0
100
AcDbLine
 10
-0.9909971430161691
 20
4.36184924408737
 30
0.0
 11
-0.1715363691043062
 21
5.334785089457612
 31
0.0
  0
LINE
  5
221
330
1F
100
AcDbEntity
  8
0
100
AcDbLine
 10
6.721892178463435
 20
5.030467530428028
 30
0.0
 11
7.453477475298961
 21
3.988980097214911
 31
0.0
  0
LINE
  5
222
330
1F
100
AcDbEntity
  8
0
100
AcDbLine
 10
6.426096694131245
 20
-1.85612198362807
 30
0.0
 11
7.124383554980408
 21
-1.024432739257795
 31
0.0
  0
LINE
  5
223
330
1F
100
AcDbEntity
  8
0
100
AcDbLine
 10
-0.4772869993385542
 20
-1.550923126407879
 30
0.0
 11
-1.207986346627866
 21
-0.5070104364836003
 31
0.0
  0
LINE
  5
224
330
1F
100
AcDbEntity
  8
0
100
AcDbLine
 10
7.18719708652162
 20
3.374784982324509
 30
0.0
 11
6.481798819582042
 21
4.379202019146952
 31
0.0
  0
LINE
  5
225
330
1F
100
AcDbEntity
  8
0
100
AcDbLine
 10
-0.1654097900782634
 20
4.672690753061245
 30
0.0
 11
-0.9555957918935606
 21
3.734380530363178
 31
0.0
  0
LINE
  5
226
330
1F
100
AcDbEntity
  8
0
100
AcDbLine
 10
4.454302046398471
 20
-13.29163553444589
 30
0.0
 11
4.073531016406074
 21
-13.74601420398146
 31
0.0
  0
LINE
  5
227
330
1F
100
AcDbEntity
  8
0
100
AcDbLine
 10
0.8662449519402079
 20
-13.60386313384025
 30
0.0
 11
0.5265808169467787
 21
-13.11757101475501
 31
0.0
  0
ENDSEC
  0
SECTION
  2
OBJECTS
  0
DICTIONARY
  5
C
330
0
100
AcDbDictionary
  3
ACAD_GROUP
350
D
  3
ACAD_LAYOUT
350
1A
  3
ACAD_MATERIAL
350
3B
  3
ACAD_MLEADERSTYLE
350
24A
  3
ACAD_MLINESTYLE
350
17
  3
ACAD_PLOTSETTINGS
350
19
  3
ACAD_VISUALSTYLE
350
2A
  3
ACDBHEADERROUNDTRIPXREC
350
228
  3
ACDBVARIABLEDICTIONARY
350
248
  0
DICTIONARY
  5
D
102
{ACAD_REACTORS
330
C
102
}
330
C
100
AcDbDictionary
  0
DICTIONARY
  5
1A
102
{ACAD_REACTORS
330
C
102
}
330
C
100
AcDbDictionary
  0
DICTIONARY
  5
3B
102
{ACAD_REACTORS
330
C
102
}
330
C
100
AcDbDictionary
  3
BYBLOCK
350
3D
  3
BYLAYER
350
3C
  3
GLOBAL
350
3E
  0
DICTIONARY
  5
24A
102
{ACAD_REACTORS
330
C
102
}
330
C
100
AcDbDictionary
  0
DICTIONARY
  5
17
102
{ACAD_REACTORS
330
C
102
}
330
C
100
AcDbDictionary
  3
STANDARD
350
18
  0
DICTIONARY
  5
19
102
{ACAD_REACTORS
330
C
102
}
330
C
100
AcDbDictionary
  0
DICTIONARY
  5
2A
102
{ACAD_REACTORS
330
C
102
}
330
C
100
AcDbDictionary
  3
2DWIREFRAME
350
2F
  3
3DWIREFRAME
350
30
  3
3D_HIDDEN
350
31
  3
BASIC
350
32
  3
BRIGHTEN
350
36
  3
COLORCHANGE
350
3A
  3
CONCEPTUAL
350
34
  3
DIM
350
35
  3
FACEPATTERN
350
39
  3
FLAT
350
2B
  3
FLATWITHEDGES
350
2C
  3
GOURAUD
350
2D
  3
GOURAUDWITHEDGES
350
2E
  3
LINEPATTERN
350
38
  3
REALISTIC
350
33
  3
THICKEN
350
37
  0
DICTIONARY
  5
228
102
{ACAD_REACTORS
330
C
102
}
330
C
100
AcDbDictionary
  3
CEPSNTYPE
350
231
  3
DIMSTYLEDATA
350
247
  3
FINGERPRINTGUID
350
232
  3
HYPERLINKBASE
350
22B
  3
INSUNITS
350
230
  3
LAYOUTDICT
350
22D
  3
LWETCUNION
350
22F
  3
PLOTSETDICT
350
22E
  3
PSVPSCALE
350
234
  3
PUCSBASE
350
237
  3
PUCSORGBACK
350
23D
  3
PUCSORGBOTTOM
350
239
  3
PUCSORGFRONT
350
23C
  3
PUCSORGLEFT
350
23A
  3
PUCSORGRIGHT
350
23B
  3
PUCSORGTOP
350
238
  3
PUCSORTHOREF
350
235
  3
PUCSORTHOVIEW
350
236
  3
STYLESHEET
350
22C
  3
TSTACKALIGN
350
229
  3
TSTACKSIZE
350
22A
  3
UCSBASE
350
240
  3
UCSORGBACK
350
246
  3
UCSORGBOTTOM
350
242
  3
UCSORGFRONT
350
245
  3
UCSORGLEFT
350
243
  3
UCSORGRIGHT
350
244
  3
UCSORGTOP
350
241
  3
UCSORTHOREF
350
23E
  3
UCSORTHOVIEW
350
23F
  3
VERSIONGUID
350
233
  0
DICTIONARY
  5
248
102
{ACAD_REACTORS
330
C
102
}
330
C
100
AcDbDictionary
  3
DIMASSOC
350
24B
  3
HIDETEXT
350
24C
  0
MATERIAL
  5
3D
102
{ACAD_REACTORS
330
3B
102
}
102
{ACAD_XDICTIONARY
360
24F
102
}
330
3B
100
AcDbMaterial
  1
ByBlock
  0
MATERIAL
  5
3C
102
{ACAD_REACTORS
330
3B
102
}
102
{ACAD_XDICTIONARY
360
24D
102
}
330
3B
100
AcDbMaterial
  1
ByLayer
  0
MATERIAL
  5
3E
102
{ACAD_REACTORS
330
3B
102
}
102
{ACAD_XDICTIONARY
360
251
102
}
330
3B
100
AcDbMaterial
  1
Global
  0
MLINESTYLE
  5
18
102
{ACAD_REACTORS
330
17
102
}
330
17
100
AcDbMlineStyle
  2
Standard
 70
     0
  3

 62
   256
 51
90.0
 52
90.0
 71
     2
 49
0.5
 62
   256
  6
BYLAYER
 49
-0.5
 62
   256
  6
BYLAYER
  0
ACAD_PROXY_OBJECT
  5
2F
102
{ACAD_REACTORS
330
2A
102
}
330
2A
100
AcDbProxyObject
 90
      499
 91
      501
 93
      436
310
42CC9915DA5C99599C985B595049028333333333333E3BF0000000000000FB0107901411070040501600405405064090741402480A0340
1001
ACAD
1000
AcDbSavedByObjectVersion
1070
     0
  0
ACAD_PROXY_OBJECT
  5
30
102
{ACAD_REACTORS
330
2A
102
}
330
2A
100
AcDbProxyObject
 90
      499
 91
      501
 93
      436
310
42CCD915DA5C99599C985B595059028333333333333E3BF0000000000000FB0107901411070040501600405405064090741402480A0340
1001
ACAD
1000
AcDbSavedByObjectVersion
1070
     0
  0
ACAD_PROXY_OBJECT
  5
31
102
{ACAD_REACTORS
330
2A
102
}
330
2A
100
AcDbProxyObject
 90
      499
 91
      501
 93
      500
310
424CD108121A5919195B90640502408333333333333E3BF0000000000000FB01079024090700405020000000000001110200405405064090740C02480A0340
1001
ACAD
1000
AcDbSavedByObjectVersion
1070
     0
  0
ACAD_PROXY_OBJECT
  5
32
102
{ACAD_REACTORS
330
2A
102
}
330
2A
100
AcDbProxyObject
 90
      499
 91
      501
 93
      388
310
4150985CDA58D07406404333333333333E3BF0000000000000FB0107A41107004050150841D405064090741402480A0350
1001
ACAD
1000
AcDbSavedByObjectVersion
1070
     0
  0
ACAD_PROXY_OBJECT
  5
36
102
{ACAD_REACTORS
330
2A
102
}
330
2A
100
AcDbProxyObject
 90
      499
 91
      501
 93
      428
310
42109C9A59DA1D195B90C409028333333333333E3BF0000000000000FB010790141107004050150841D405064090741402480A029950
1001
ACAD
1000
AcDbSavedByObjectVersion
1070
     0
  0
ACAD_PROXY_OBJECT
  5
3A
102
{ACAD_REACTORS
330
2A
102
}
330
2A
100
AcDbProxyObject
 90
      499
 91
      501
 93
      452
310
42D0DBDB1BDC90DA185B99D95104090240C333333333333E3BF0000000000000FB0108901411070040501508421405064090741402480A0350
1001
ACAD
1000
AcDbSavedByObjectVersion
1070
     0
  0
ACAD_PROXY_OBJECT
  5
34
102
{ACAD_REACTORS
330
2A
102
}
330
2A
100
AcDbProxyObject
 90
      499
 91
      501
 93
      500
310
4290DBDB98D95C1D1D585B10940D028333333333333E3BF0000000000000FB0107902409070040501000000000000111010841D405064090740C02480A0340
1001
ACAD
1000
AcDbSavedByObjectVersion
1070
     0
  0
ACAD_PROXY_OBJECT
  5
35
102
{ACAD_REACTORS
330
2A
102
}
330
2A
100
AcDbProxyObject
 90
      499
 91
      501
 93
      412
310
40D11A5B50B409028333333333333E3BF0000000000000FB010790141107004050150841D405064090741402480A02677FFFFFD0
1001
ACAD
1000
AcDbSavedByObjectVersion
1070
     0
  0
ACAD_PROXY_OBJECT
  5
39
102
{ACAD_REACTORS
330
2A
102
}
330
2A
100
AcDbProxyObject
 90
      499
 91
      501
 93
      444
310
42D19858D95C185D1D195C9B90F409028333333333333E3BF0000000000000FB010790141107004050150841D405064090741402480A0350
1001
ACAD
1000
AcDbSavedByObjectVersion
1070
     0
  0
ACAD_PROXY_OBJECT
  5
2B
102
{ACAD_REACTORS
330
2A
102
}
330
2A
100
AcDbProxyObject
 90
      499
 91
      501
 93
      388
310
41119B185D240901404333333333333E3BF0000000000000F9010740A41107004050150841D405064090741402480A1B50
1001
ACAD
1000
AcDbSavedByObjectVersion
1070
     0
  0
ACAD_PROXY_OBJECT
  5
2C
102
{ACAD_REACTORS
330
2A
102
}
330
2A
100
AcDbProxyObject
 90
      499
 91
      501
 93
      476
310
43519B185D15DA5D1A115919D95CD0140901404333333333333E3BF0000000000000F9010740901411070040501600405405064090741402480A1B50
1001
ACAD
1000
AcDbSavedByObjectVersion
1070
     0
  0
ACAD_PROXY_OBJECT
  5
2D
102
{ACAD_REACTORS
330
2A
102
}
330
2A
100
AcDbProxyObject
 90
      499
 91
      501
 93
      412
310
41D1DBDD5C985D5910240902404333333333333E3BF0000000000000F9010740A411070040501641D405064090741402480A1B50
1001
ACAD
1000
AcDbSavedByObjectVersion
1070
     0
  0
ACAD_PROXY_OBJECT
  5
2E
102
{ACAD_REACTORS
330
2A
102
}
330
2A
100
AcDbProxyObject
 90
      499
 91
      501
 93
      500
310
4411DBDD5C985D5915DA5D1A115919D95CD0340902404333333333333E3BF0000000000000F9010740901411070040501600405405064090741402480A1B50
1001
ACAD
1000
AcDbSavedByObjectVersion
1070
     0
  0
ACAD_PROXY_OBJECT
  5
38
102
{ACAD_REACTORS
330
2A
102
}
330
2A
100
AcDbProxyObject
 90
      499
 91
      501
 93
      444
310
42D31A5B995C185D1D195C9B90E409028333333333333E3BF0000000000000FB010790141107004050750841D405064090741402483A0350
1001
ACAD
1000
AcDbSavedByObjectVersion
1070
     0
  0
ACAD_PROXY_OBJECT
  5
33
102
{ACAD_REACTORS
330
2A
102
}
330
2A
100
AcDbProxyObject
 90
      499
 91
      501
 93
      420
310
425499585B1A5CDD1A58D08409028333333333333E3BF0000000000000FB01079019070040501508421405064090741402480A1B40
1001
ACAD
1000
AcDbSavedByObjectVersion
1070
     0
  0
ACAD_PROXY_OBJECT
  5
37
102
{ACAD_REACTORS
330
2A
102
}
330
2A
100
AcDbProxyObject
 90
      499
 91
      501
 93
      412
310
41D51A1A58DAD95B90D409028333333333333E3BF0000000000000FB010790141107004050150C41D405064090741402480A0350
1001
ACAD
1000
AcDbSavedByObjectVersion
1070
     0
  0
XRECORD
  5
231
102
{ACAD_REACTORS
330
228
102
}
330
228
100
AcDbXrecord
 90
        0
  0
XRECORD
  5
247
102
{ACAD_REACTORS
330
228
102
}
330
228
100
AcDbXrecord
1000
DSTYLE
1002
{
1070
   340
340
11
1002
}
  0
XRECORD
  5
232
102
{ACAD_REACTORS
330
228
102
}
330
228
100
AcDbXrecord
  1
{458F0ACD-2EA7-5671-9EE2-0EE7E6310258}
  0
XRECORD
  5
22B
102
{ACAD_REACTORS
330
228
102
}
330
228
100
AcDbXrecord
  1

  0
XRECORD
  5
230
102
{ACAD_REACTORS
330
228
102
}
330
228
100
AcDbXrecord
 90
        1
  0
XRECORD
  5
22D
102
{ACAD_REACTORS
330
228
102
}
330
228
100
AcDbXrecord
340
1A
  0
XRECORD
  5
22F
102
{ACAD_REACTORS
330
228
102
}
330
228
100
AcDbXrecord
 90
    10781
  0
XRECORD
  5
22E
102
{ACAD_REACTORS
330
228
102
}
330
228
100
AcDbXrecord
340
19
  0
XRECORD
  5
234
102
{ACAD_REACTORS
330
228
102
}
330
228
100
AcDbXrecord
 40
0.0
  0
XRECORD
  5
237
102
{ACAD_REACTORS
330
228
102
}
330
228
100
AcDbXrecord
340
0
  0
XRECORD
  5
23D
102
{ACAD_REACTORS
330
228
102
}
330
228
100
AcDbXrecord
 10
0.0
 20
0.0
 30
0.0
  0
XRECORD
  5
239
102
{ACAD_REACTORS
330
228
102
}
330
228
100
AcDbXrecord
 10
0.0
 20
0.0
 30
0.0
  0
XRECORD
  5
23C
102
{ACAD_REACTORS
330
228
102
}
330
228
100
AcDbXrecord
 10
0.0
 20
0.0
 30
0.0
  0
XRECORD
  5
23A
102
{ACAD_REACTORS
330
228
102
}
330
228
100
AcDbXrecord
 10
0.0
 20
0.0
 30
0.0
  0
XRECORD
  5
23B
102
{ACAD_REACTORS
330
228
102
}
330
228
100
AcDbXrecord
 10
0.0
 20
0.0
 30
0.0
  0
XRECORD
  5
238
102
{ACAD_REACTORS
330
228
102
}
330
228
100
AcDbXrecord
 10
0.0
 20
0.0
 30
0.0
  0
XRECORD
  5
235
102
{ACAD_REACTORS
330
228
102
}
330
228
100
AcDbXrecord
340
0
  0
XRECORD
  5
236
102
{ACAD_REACTORS
330
228
102
}
330
228
100
AcDbXrecord
 70
     0
  0
XRECORD
  5
22C
102
{ACAD_REACTORS
330
228
102
}
330
228
100
AcDbXrecord
  1

  0
XRECORD
  5
229
102
{ACAD_REACTORS
330
228
102
}
330
228
100
AcDbXrecord
 90
        1
  0
XRECORD
  5
22A
102
{ACAD_REACTORS
330
228
102
}
330
228
100
AcDbXrecord
 90
       70
  0
XRECORD
  5
240
102
{ACAD_REACTORS
330
228
102
}
330
228
100
AcDbXrecord
340
0
  0
XRECORD
  5
246
102
{ACAD_REACTORS
330
228
102
}
330
228
100
AcDbXrecord
 10
0.0
 20
0.0
 30
0.0
  0
XRECORD
  5
242
102
{ACAD_REACTORS
330
228
102
}
330
228
100
AcDbXrecord
 10
0.0
 20
0.0
 30
0.0
  0
XRECORD
  5
245
102
{ACAD_REACTORS
330
228
102
}
330
228
100
AcDbXrecord
 10
0.0
 20
0.0
 30
0.0
  0
XRECORD
  5
243
102
{ACAD_REACTORS
330
228
102
}
330
228
100
AcDbXrecord
 10
0.0
 20
0.0
 30
0.0
  0
XRECORD
  5
244
102
{ACAD_REACTORS
330
228
102
}
330
228
100
AcDbXrecord
 10
0.0
 20
0.0
 30
0.0
  0
XRECORD
  5
241
102
{ACAD_REACTORS
330
228
102
}
330
228
100
AcDbXrecord
 10
0.0
 20
0.0
 30
0.0
  0
XRECORD
  5
23E
102
{ACAD_REACTORS
330
228
102
}
330
228
100
AcDbXrecord
340
0
  0
XRECORD
  5
23F
102
{ACAD_REACTORS
330
228
102
}
330
228
100
AcDbXrecord
 70
     0
  0
XRECORD
  5
233
102
{ACAD_REACTORS
330
228
102
}
330
228
100
AcDbXrecord
  1
{FAEB1C32-E019-11D5-929B-00C0DF256EC4}
  0
DICTIONARYVAR
  5
24B
102
{ACAD_REACTORS
330
248
102
}
330
248
100
DictionaryVariables
280
     0
  1
2
  0
DICTIONARYVAR
  5
24C
102
{ACAD_REACTORS
330
248
102
}
330
248
100
DictionaryVariables
280
     0
  1
1
  0
DICTIONARY
  5
24F
330
3D
100
AcDbDictionary
280
     1
  3
ACAD_XREC_ROUNDTRIP
360
250
  0
DICTIONARY
  5
24D
330
3C
100
AcDbDictionary
280
     1
  3
ACAD_XREC_ROUNDTRIP
360
24E
  0
DICTIONARY
  5
251
330
3E
100
AcDbDictionary
280
     1
  3
ACAD_XREC_ROUNDTRIP
360
252
  0
XRECORD
  5
250
102
{ACAD_REACTORS
330
24F
102
}
330
24F
100
AcDbXrecord
102
MATERIAL
148
0.0
149
0.0
149
0.0
 93
        0
 94
      127
282
     0
 72
     1
 77
     1
171
     1
175
     1
179
     1
273
     0
  0
XRECORD
  5
24E
102
{ACAD_REACTORS
330
24D
102
}
330
24D
100
AcDbXrecord
102
MATERIAL
148
0.0
149
0.0
149
0.0
 93
        0
 94
      127
282
     0
 72
     1
 77
     1
171
     1
175
     1
179
     1
273
     0
  0
XRECORD
  5
252
102
{ACAD_REACTORS
330
251
102
}
330
251
100
AcDbXrecord
102
MATERIAL
148
0.0
149
0.0
149
0.0
 93
        0
 94
      127
282
     0
 72
     1
 77
     1
171
     1
175
     1
179
     1
273
     0
  0
ENDSEC
  0
EOF
