<?xml version="1.0" encoding="UTF-8" standalone="no"?>
<!-- Created with Inkscape (http://www.inkscape.org/) -->

<svg
   xmlns:dc="http://purl.org/dc/elements/1.1/"
   xmlns:cc="http://creativecommons.org/ns#"
   xmlns:rdf="http://www.w3.org/1999/02/22-rdf-syntax-ns#"
   xmlns:svg="http://www.w3.org/2000/svg"
   xmlns="http://www.w3.org/2000/svg"
   xmlns:sodipodi="http://sodipodi.sourceforge.net/DTD/sodipodi-0.dtd"
   xmlns:inkscape="http://www.inkscape.org/namespaces/inkscape"
   width="248.84375"
   height="212.40625"
   id="svg4160"
   version="1.1"
   inkscape:version="0.48.4 r9939"
   sodipodi:docname="y_mount.svg">
  <defs
     id="defs4162" />
  <sodipodi:namedview
     id="base"
     pagecolor="#ffffff"
     bordercolor="#666666"
     borderopacity="1.0"
     inkscape:pageopacity="0.0"
     inkscape:pageshadow="2"
     inkscape:zoom="1.4"
     inkscape:cx="113.43657"
     inkscape:cy="90.978244"
     inkscape:document-units="px"
     inkscape:current-layer="layer1"
     showgrid="false"
     units="in"
     fit-margin-top="0"
     fit-margin-left="0"
     fit-margin-right="0"
     fit-margin-bottom="0"
     inkscape:window-width="1366"
     inkscape:window-height="706"
     inkscape:window-x="-8"
     inkscape:window-y="-8"
     inkscape:window-maximized="1" />
  <metadata
     id="metadata4165">
    <rdf:RDF>
      <cc:Work
         rdf:about="">
        <dc:format>image/svg+xml</dc:format>
        <dc:type
           rdf:resource="http://purl.org/dc/dcmitype/StillImage" />
        <dc:title></dc:title>
      </cc:Work>
    </rdf:RDF>
  </metadata>
  <g
     inkscape:label="Layer 1"
     inkscape:groupmode="layer"
     id="layer1"
     transform="translate(197.25,-551.4375)">
    <path
       transform="matrix(0.08995718,0,0,0.10023196,-183.75304,693.2962)"
       style="fill:none;stroke:#000000;stroke-width:1.05312276;stroke-miterlimit:4;stroke-opacity:1"
       d="m 431.42858,476.64789 c 0,62.32928 -56.2842,112.85714 -125.71429,112.85714 -69.43008,0 -125.71428,-50.52786 -125.71428,-112.85714 0,-62.32928 56.2842,-112.85714 125.71428,-112.85714 69.43009,0 125.71429,50.52786 125.71429,112.85714 z"
       id="path4168" />
    <path
       transform="matrix(0.08995718,0,0,0.10023196,-16.89305,526.43621)"
       style="fill:none;stroke:#000000;stroke-width:1.05312276;stroke-miterlimit:4;stroke-opacity:1"
       d="m 431.42858,476.64789 c 0,62.32928 -56.2842,112.85714 -125.71429,112.85714 -69.43008,0 -125.71428,-50.52786 -125.71428,-112.85714 0,-62.32928 56.2842,-112.85714 125.71428,-112.85714 69.43009,0 125.71429,50.52786 125.71429,112.85714 z"
       id="path4168-3" />
    <path
       transform="matrix(0.08995718,0,0,0.10023196,-16.89305,693.29621)"
       style="fill:none;stroke:#000000;stroke-width:1.05312276;stroke-miterlimit:4;stroke-opacity:1"
       d="m 431.42858,476.64789 c 0,62.32928 -56.2842,112.85714 -125.71429,112.85714 -69.43008,0 -125.71428,-50.52786 -125.71428,-112.85714 0,-62.32928 56.2842,-112.85714 125.71428,-112.85714 69.43009,0 125.71429,50.52786 125.71429,112.85714 z"
       id="path4168-2" />
    <path
       transform="matrix(0.08995718,0,0,0.10023196,-183.75305,526.43621)"
       style="fill:none;stroke:#000000;stroke-width:1.05312276;stroke-miterlimit:4;stroke-opacity:1"
       d="m 431.42858,476.64789 c 0,62.32928 -56.2842,112.85714 -125.71429,112.85714 -69.43008,0 -125.71428,-50.52786 -125.71428,-112.85714 0,-62.32928 56.2842,-112.85714 125.71428,-112.85714 69.43009,0 125.71429,50.52786 125.71429,112.85714 z"
       id="path4168-21" />
    <path
       transform="matrix(0.13812323,0,0,0.15389946,-198.47809,667.71571)"
       style="fill:none;stroke:#000000;stroke-width:0.68587995;stroke-miterlimit:4;stroke-opacity:1"
       d="m 431.42858,476.64789 c 0,62.32928 -56.2842,112.85714 -125.71429,112.85714 -69.43008,0 -125.71428,-50.52786 -125.71428,-112.85714 0,-62.32928 56.2842,-112.85714 125.71428,-112.85714 69.43009,0 125.71429,50.52786 125.71429,112.85714 z"
       id="path4168-3-6" />
    <path
       transform="matrix(0.13812323,0,0,0.15389946,-31.6181,667.71571)"
       style="fill:none;stroke:#000000;stroke-width:0.68587995;stroke-miterlimit:4;stroke-opacity:1"
       d="m 431.42858,476.64789 c 0,62.32928 -56.2842,112.85714 -125.71429,112.85714 -69.43008,0 -125.71428,-50.52786 -125.71428,-112.85714 0,-62.32928 56.2842,-112.85714 125.71428,-112.85714 69.43009,0 125.71429,50.52786 125.71429,112.85714 z"
       id="path4168-3-6-1" />
    <path
       transform="matrix(0.13812323,0,0,0.15389946,-198.47809,500.85571)"
       style="fill:none;stroke:#000000;stroke-width:0.68587995;stroke-miterlimit:4;stroke-opacity:1"
       d="m 431.42858,476.64789 c 0,62.32928 -56.2842,112.85714 -125.71429,112.85714 -69.43008,0 -125.71428,-50.52786 -125.71428,-112.85714 0,-62.32928 56.2842,-112.85714 125.71428,-112.85714 69.43009,0 125.71429,50.52786 125.71429,112.85714 z"
       id="path4168-3-6-1-8" />
    <path
       transform="matrix(0.13812323,0,0,0.15389946,-31.6181,500.85571)"
       style="fill:none;stroke:#000000;stroke-width:0.68587995;stroke-miterlimit:4;stroke-opacity:1"
       d="m 431.42858,476.64789 c 0,62.32928 -56.2842,112.85714 -125.71429,112.85714 -69.43008,0 -125.71428,-50.52786 -125.71428,-112.85714 0,-62.32928 56.2842,-112.85714 125.71428,-112.85714 69.43009,0 125.71429,50.52786 125.71429,112.85714 z"
       id="path4168-3-6-1-9" />
    <path
       transform="matrix(0.1533522,0,0,0.17086786,-208.30881,576.19776)"
       style="fill:none;stroke:#000000;stroke-width:0.61776716;stroke-miterlimit:4;stroke-opacity:1"
       d="m 431.42858,476.64789 c 0,62.32928 -56.2842,112.85714 -125.71429,112.85714 -69.43008,0 -125.71428,-50.52786 -125.71428,-112.85714 0,-62.32928 56.2842,-112.85714 125.71428,-112.85714 69.43009,0 125.71429,50.52786 125.71429,112.85714 z"
       id="path4168-3-6-1-2" />
    <path
       transform="matrix(0.09774875,0,0,0.10891346,-191.31005,605.7282)"
       style="fill:none;stroke:#000000;stroke-width:0.96917814;stroke-miterlimit:4;stroke-opacity:1"
       d="m 431.42858,476.64789 c 0,62.32928 -56.2842,112.85714 -125.71429,112.85714 -69.43008,0 -125.71428,-50.52786 -125.71428,-112.85714 0,-62.32928 56.2842,-112.85714 125.71428,-112.85714 69.43009,0 125.71429,50.52786 125.71429,112.85714 z"
       id="path4168-3-6-1-7" />
    <path
       transform="matrix(0.1533522,0,0,0.17086786,-31.09881,576.19776)"
       style="fill:none;stroke:#000000;stroke-width:0.61776716;stroke-miterlimit:4;stroke-opacity:1"
       d="m 431.42858,476.64789 c 0,62.32928 -56.2842,112.85714 -125.71429,112.85714 -69.43008,0 -125.71428,-50.52786 -125.71428,-112.85714 0,-62.32928 56.2842,-112.85714 125.71428,-112.85714 69.43009,0 125.71429,50.52786 125.71429,112.85714 z"
       id="path4168-3-6-1-2-5" />
    <path
       transform="matrix(0.09774875,0,0,0.10891346,-14.10005,605.7282)"
       style="fill:none;stroke:#000000;stroke-width:0.96917814;stroke-miterlimit:4;stroke-opacity:1"
       d="m 431.42858,476.64789 c 0,62.32928 -56.2842,112.85714 -125.71429,112.85714 -69.43008,0 -125.71428,-50.52786 -125.71428,-112.85714 0,-62.32928 56.2842,-112.85714 125.71428,-112.85714 69.43009,0 125.71429,50.52786 125.71429,112.85714 z"
       id="path4168-3-6-1-7-4" />
    <path
       transform="matrix(0.36584947,0,0,0.40763625,-184.66726,463.3426)"
       style="fill:none;stroke:#000000;stroke-width:0.25894791;stroke-miterlimit:4;stroke-opacity:1"
       d="m 431.42858,476.64789 c 0,62.32928 -56.2842,112.85714 -125.71429,112.85714 -69.43008,0 -125.71428,-50.52786 -125.71428,-112.85714 0,-62.32928 56.2842,-112.85714 125.71428,-112.85714 69.43009,0 125.71429,50.52786 125.71429,112.85714 z"
       id="path4168-3-6-1-2-1" />
    <path
       transform="matrix(0.21249727,0,0,0.23676838,-137.7853,544.78641)"
       style="fill:none;stroke:#000000;stroke-width:0.44582197;stroke-miterlimit:4;stroke-opacity:1"
       d="m 431.42858,476.64789 c 0,62.32928 -56.2842,112.85714 -125.71429,112.85714 -69.43008,0 -125.71428,-50.52786 -125.71428,-112.85714 0,-62.32928 56.2842,-112.85714 125.71428,-112.85714 69.43009,0 125.71429,50.52786 125.71429,112.85714 z"
       id="path4168-3-6-1-7-2" />
    <path
       style="fill:none;stroke:#000000;stroke-width:0.1;stroke-miterlimit:4;stroke-opacity:1"
       d="m -197.18607,710.71771 248.722142,0 0,53.06214 -248.722142,0 z"
       id="rect4988" />
  </g>
</svg>
