<?xml version="1.0" encoding="UTF-8" standalone="no"?>
<!-- Created with Inkscape (http://www.inkscape.org/) -->

<svg
   xmlns:dc="http://purl.org/dc/elements/1.1/"
   xmlns:cc="http://creativecommons.org/ns#"
   xmlns:rdf="http://www.w3.org/1999/02/22-rdf-syntax-ns#"
   xmlns:svg="http://www.w3.org/2000/svg"
   xmlns="http://www.w3.org/2000/svg"
   xmlns:sodipodi="http://sodipodi.sourceforge.net/DTD/sodipodi-0.dtd"
   xmlns:inkscape="http://www.inkscape.org/namespaces/inkscape"
   width="248.84375"
   height="212.40625"
   id="svg4160"
   version="1.1"
   inkscape:version="0.48.2 r9819"
   sodipodi:docname="y_mount.svg">
  <defs
     id="defs4162" />
  <sodipodi:namedview
     id="base"
     pagecolor="#ffffff"
     bordercolor="#666666"
     borderopacity="1.0"
     inkscape:pageopacity="0.0"
     inkscape:pageshadow="2"
     inkscape:zoom="1.4"
     inkscape:cx="113.43657"
     inkscape:cy="90.978244"
     inkscape:document-units="px"
     inkscape:current-layer="layer1"
     showgrid="false"
     units="in"
     fit-margin-top="0"
     fit-margin-left="0"
     fit-margin-right="0"
     fit-margin-bottom="0"
     inkscape:window-width="1676"
     inkscape:window-height="1006"
     inkscape:window-x="4"
     inkscape:window-y="0"
     inkscape:window-maximized="1" />
  <metadata
     id="metadata4165">
    <rdf:RDF>
      <cc:Work
         rdf:about="">
        <dc:format>image/svg+xml</dc:format>
        <dc:type
           rdf:resource="http://purl.org/dc/dcmitype/StillImage" />
        <dc:title />
      </cc:Work>
    </rdf:RDF>
  </metadata>
  <g
     inkscape:label="Layer 1"
     inkscape:groupmode="layer"
     id="layer1"
     transform="translate(197.25,-551.4375)">
    <path
       inkscape:connector-curvature="0"
       style="fill:none;stroke:#000000;stroke-width:0.10000001;stroke-miterlimit:4;stroke-opacity:1"
       d="m -144.94294,741.07155 c 0,6.24739 -5.06317,11.31189 -11.3089,11.31189 -6.24574,0 -11.30891,-5.0645 -11.30891,-11.31189 0,-6.24738 5.06317,-11.31189 11.30891,-11.31189 6.24573,0 11.3089,5.06451 11.3089,11.31189 z"
       id="path4168" />
    <path
       inkscape:connector-curvature="0"
       style="fill:none;stroke:#000000;stroke-width:0.10000001;stroke-miterlimit:4;stroke-opacity:1"
       d="m 21.917048,574.21156 c 0,6.24739 -5.063167,11.31189 -11.308903,11.31189 -6.2457338,0 -11.3089017,-5.0645 -11.3089017,-11.31189 0,-6.24738 5.0631679,-11.31189 11.3089017,-11.31189 6.245736,0 11.308903,5.06451 11.308903,11.31189 z"
       id="path4168-3" />
    <path
       inkscape:connector-curvature="0"
       style="fill:none;stroke:#000000;stroke-width:0.10000001;stroke-miterlimit:4;stroke-opacity:1"
       d="m 21.917048,741.07156 c 0,6.24739 -5.063167,11.31189 -11.308903,11.31189 -6.2457338,0 -11.3089017,-5.0645 -11.3089017,-11.31189 0,-6.24738 5.0631679,-11.31189 11.3089017,-11.31189 6.245736,0 11.308903,5.06451 11.308903,11.31189 z"
       id="path4168-2" />
    <path
       inkscape:connector-curvature="0"
       style="fill:none;stroke:#000000;stroke-width:0.10000001;stroke-miterlimit:4;stroke-opacity:1"
       d="m -144.94295,574.21156 c 0,6.24739 -5.06317,11.31189 -11.3089,11.31189 -6.24574,0 -11.30891,-5.0645 -11.30891,-11.31189 0,-6.24738 5.06317,-11.31189 11.30891,-11.31189 6.24573,0 11.3089,5.06451 11.3089,11.31189 z"
       id="path4168-21" />
    <path
       inkscape:connector-curvature="0"
       style="fill:none;stroke:#000000;stroke-width:0.1;stroke-miterlimit:4;stroke-opacity:1"
       d="m -138.88778,741.07156 c 0,9.59245 -7.77416,17.36866 -17.36406,17.36866 -9.58991,0 -17.36407,-7.77621 -17.36407,-17.36866 0,-9.59244 7.77416,-17.36865 17.36407,-17.36865 9.5899,0 17.36406,7.77621 17.36406,17.36865 z"
       id="path4168-3-6" />
    <path
       inkscape:connector-curvature="0"
       style="fill:none;stroke:#000000;stroke-width:0.1;stroke-miterlimit:4;stroke-opacity:1"
       d="m 27.972209,741.07156 c 0,9.59245 -7.774156,17.36866 -17.364064,17.36866 -9.5899067,0 -17.3640622,-7.77621 -17.3640622,-17.36866 0,-9.59244 7.7741555,-17.36865 17.3640622,-17.36865 9.589908,0 17.364064,7.77621 17.364064,17.36865 z"
       id="path4168-3-6-1" />
    <path
       inkscape:connector-curvature="0"
       style="fill:none;stroke:#000000;stroke-width:0.1;stroke-miterlimit:4;stroke-opacity:1"
       d="m -138.88778,574.21156 c 0,9.59245 -7.77416,17.36866 -17.36406,17.36866 -9.58991,0 -17.36407,-7.77621 -17.36407,-17.36866 0,-9.59244 7.77416,-17.36865 17.36407,-17.36865 9.5899,0 17.36406,7.77621 17.36406,17.36865 z"
       id="path4168-3-6-1-8" />
    <path
       inkscape:connector-curvature="0"
       style="fill:none;stroke:#000000;stroke-width:0.1;stroke-miterlimit:4;stroke-opacity:1"
       d="m 27.972209,574.21156 c 0,9.59245 -7.774156,17.36866 -17.364064,17.36866 -9.5899067,0 -17.3640622,-7.77621 -17.3640622,-17.36866 0,-9.59244 7.7741555,-17.36865 17.3640622,-17.36865 9.589908,0 17.364064,7.77621 17.364064,17.36865 z"
       id="path4168-3-6-1-9" />
    <path
       inkscape:connector-curvature="0"
       style="fill:none;stroke:#000000;stroke-width:0.1;stroke-miterlimit:4;stroke-opacity:1"
       d="m -142.14829,657.64156 c 0,10.65008 -8.6313,19.28366 -19.27856,19.28366 -10.64726,0 -19.27856,-8.63358 -19.27856,-19.28366 0,-10.65007 8.6313,-19.28365 19.27856,-19.28365 10.64726,0 19.27856,8.63358 19.27856,19.28365 z"
       id="path4168-3-6-1-2" />
    <path
       inkscape:connector-curvature="0"
       style="fill:none;stroke:#000000;stroke-width:0.1;stroke-miterlimit:4;stroke-opacity:1"
       d="m -149.13845,657.64157 c 0,6.7885 -5.50171,12.29166 -12.28841,12.29166 -6.7867,0 -12.28841,-5.50316 -12.28841,-12.29166 0,-6.7885 5.50171,-12.29166 12.28841,-12.29166 6.7867,0 12.28841,5.50316 12.28841,12.29166 z"
       id="path4168-3-6-1-7" />
    <path
       inkscape:connector-curvature="0"
       style="fill:none;stroke:#000000;stroke-width:0.1;stroke-miterlimit:4;stroke-opacity:1"
       d="m 35.061712,657.64156 c 0,10.65008 -8.631306,19.28366 -19.278563,19.28366 -10.6472556,0 -19.2785615,-8.63358 -19.2785615,-19.28366 0,-10.65007 8.6313059,-19.28365 19.2785615,-19.28365 10.647257,0 19.278563,8.63358 19.278563,19.28365 z"
       id="path4168-3-6-1-2-5" />
    <path
       inkscape:connector-curvature="0"
       style="fill:none;stroke:#000000;stroke-width:0.1;stroke-miterlimit:4;stroke-opacity:1"
       d="m 28.071554,657.64157 c 0,6.7885 -5.50171,12.29166 -12.288414,12.29166 -6.7867038,0 -12.288414,-5.50316 -12.288414,-12.29166 0,-6.7885 5.5017102,-12.29166 12.288414,-12.29166 6.786704,0 12.288414,5.50316 12.288414,12.29166 z"
       id="path4168-3-6-1-7-4" />
    <path
       inkscape:connector-curvature="0"
       style="fill:none;stroke:#000000;stroke-width:0.1;stroke-miterlimit:4;stroke-opacity:1"
       d="m -26.829343,657.64156 c 0,25.40767 -20.591544,46.00466 -45.992506,46.00466 -25.400958,0 -45.992501,-20.59699 -45.992501,-46.00466 0,-25.40768 20.591543,-46.00466 45.992501,-46.00466 25.400962,0 45.992506,20.59698 45.992506,46.00466 z"
       id="path4168-3-6-1-2-1" />
    <path
       inkscape:connector-curvature="0"
       style="fill:none;stroke:#000000;stroke-width:0.1;stroke-miterlimit:4;stroke-opacity:1"
       d="m -46.107905,657.64156 c 0,14.7576 -11.960238,26.721 -26.713943,26.721 -14.753702,0 -26.713941,-11.9634 -26.713941,-26.721 0,-14.7576 11.960239,-26.721 26.713941,-26.721 14.753705,0 26.713943,11.9634 26.713943,26.721 z"
       id="path4168-3-6-1-7-2" />
    <path
       inkscape:connector-curvature="0"
       style="fill:none;stroke:#000000;stroke-width:0.1;stroke-miterlimit:4;stroke-opacity:1"
       d="m -197.18607,710.71771 248.722142,0 0,53.06214 -248.722142,0 z"
       id="rect4988" />
  </g>
</svg>
