<?xml version="1.0" encoding="UTF-8" standalone="no"?>
<!-- Created with Inkscape (http://www.inkscape.org/) -->

<svg
   xmlns:dc="http://purl.org/dc/elements/1.1/"
   xmlns:cc="http://creativecommons.org/ns#"
   xmlns:rdf="http://www.w3.org/1999/02/22-rdf-syntax-ns#"
   xmlns:svg="http://www.w3.org/2000/svg"
   xmlns="http://www.w3.org/2000/svg"
   xmlns:sodipodi="http://sodipodi.sourceforge.net/DTD/sodipodi-0.dtd"
   xmlns:inkscape="http://www.inkscape.org/namespaces/inkscape"
   width="218.375"
   height="219.65625"
   id="svg2"
   version="1.1"
   inkscape:version="0.48.4 r9939"
   sodipodi:docname="z_mount.svg">
  <defs
     id="defs4" />
  <sodipodi:namedview
     id="base"
     pagecolor="#ffffff"
     bordercolor="#666666"
     borderopacity="1.0"
     inkscape:pageopacity="0.0"
     inkscape:pageshadow="2"
     inkscape:zoom="1.4"
     inkscape:cx="223.68679"
     inkscape:cy="118.04583"
     inkscape:document-units="px"
     inkscape:current-layer="layer1"
     showgrid="false"
     inkscape:window-width="1366"
     inkscape:window-height="706"
     inkscape:window-x="-8"
     inkscape:window-y="-8"
     inkscape:window-maximized="1"
     fit-margin-top="0"
     fit-margin-left="0"
     fit-margin-right="0"
     fit-margin-bottom="0" />
  <metadata
     id="metadata7">
    <rdf:RDF>
      <cc:Work
         rdf:about="">
        <dc:format>image/svg+xml</dc:format>
        <dc:type
           rdf:resource="http://purl.org/dc/dcmitype/StillImage" />
        <dc:title></dc:title>
      </cc:Work>
    </rdf:RDF>
  </metadata>
  <g
     inkscape:label="Layer 1"
     inkscape:groupmode="layer"
     id="layer1"
     transform="translate(0,-832.71875)">
    <path
       style="fill:none;stroke:#000000;stroke-width:0.06898961;stroke-miterlimit:4;stroke-opacity:1"
       d="m 83.185673,942.60233 c 0,-27.30106 22.131137,-49.43294 49.431277,-49.43294 27.30015,0 49.43129,22.13188 49.43129,49.43294 0,27.30107 -22.13114,49.43298 -49.43129,49.43298 -27.30014,0 -49.431277,-22.13191 -49.431277,-49.43298 z"
       id="path2985"
       inkscape:connector-curvature="0" />
    <path
       style="fill:none;stroke:#000000;stroke-width:0.15317249;stroke-miterlimit:4;stroke-opacity:1;stroke-dasharray:none"
       d="m 132.59375,832.7856 c -41.35093,0 -77.35143,22.87612 -96.0625,56.65625 l -36.46875,0 0,106.21875 36.46875,0 c 18.71483,33.767 54.72136,56.625 96.0625,56.625 34.6839,0 65.6065,-16.0971 85.71875,-41.2188 l 0,-137.06245 C 198.20025,848.88271 167.27765,832.7856 132.59375,832.7856 z"
       id="path2985-1"
       inkscape:connector-curvature="0" />
    <path
       style="fill:none;stroke:#000000;stroke-width:0.04027645;stroke-miterlimit:4;stroke-opacity:1"
       d="m 123.60369,1025.8524 c 0,-4.9666 4.03804,-8.9929 9.01922,-8.9929 4.98117,0 9.01921,4.0263 9.01921,8.9929 0,4.9667 -4.03804,8.993 -9.01921,8.993 -4.98118,0 -9.01922,-4.0263 -9.01922,-8.993 z"
       id="path3775"
       inkscape:connector-curvature="0" />
    <path
       style="fill:none;stroke:#000000;stroke-width:0.04027645;stroke-miterlimit:4;stroke-opacity:1"
       d="m 123.5918,859.35233 c 0,-4.96668 4.03804,-8.99298 9.01922,-8.99298 4.98117,0 9.01921,4.0263 9.01921,8.99298 0,4.96669 -4.03804,8.99298 -9.01921,8.99298 -4.98118,0 -9.01922,-4.02629 -9.01922,-8.99298 z"
       id="path3775-7"
       inkscape:connector-curvature="0" />
    <path
       style="fill:none;stroke:#000000;stroke-width:0.04027645;stroke-miterlimit:4;stroke-opacity:1"
       d="m 185.11026,1007.8423 c -3.51192,-3.5119 -3.50362,-9.21424 0.0186,-12.73647 3.52222,-3.52222 9.22457,-3.53052 12.73648,-0.0186 3.51199,3.51198 3.50369,9.21437 -0.0185,12.73657 -3.52223,3.5222 -9.22458,3.5305 -12.73656,0.019 z"
       id="path3775-1"
       inkscape:connector-curvature="0" />
    <path
       style="fill:none;stroke:#000000;stroke-width:0.04027645;stroke-miterlimit:4;stroke-opacity:1"
       d="m 67.368556,890.11744 c -3.511973,-3.51198 -3.503671,-9.21433 0.01856,-12.73655 3.522219,-3.52222 9.224568,-3.53052 12.736542,-0.0186 3.51198,3.51198 3.503671,9.21432 -0.01855,12.73654 -3.522226,3.52223 -9.224568,3.53054 -12.736549,0.0186 z"
       id="path3775-7-1"
       inkscape:connector-curvature="0" />
    <path
       style="fill:none;stroke:#000000;stroke-width:0.04027645;stroke-miterlimit:4;stroke-opacity:1"
       d="m 197.85694,890.10902 c -3.51191,3.51192 -9.21426,3.50362 -12.73649,-0.0186 -3.52222,-3.52222 -3.53052,-9.22457 -0.0186,-12.73648 3.51198,-3.51199 9.21433,-3.50369 12.73655,0.0185 3.52223,3.52223 3.53053,9.22458 0.0185,12.73656 z"
       id="path3775-1-2"
       inkscape:connector-curvature="0" />
    <path
       style="fill:none;stroke:#000000;stroke-width:0.04027645;stroke-miterlimit:4;stroke-opacity:1"
       d="m 80.132056,1007.8507 c -3.511973,3.512 -9.214322,3.5037 -12.736548,-0.019 -3.522219,-3.5223 -3.530521,-9.2246 -0.01855,-12.73657 3.51198,-3.51198 9.214323,-3.50367 12.736542,0.0185 3.522226,3.52223 3.530535,9.22457 0.01855,12.73657 z"
       id="path3775-7-1-7"
       inkscape:connector-curvature="0" />
  </g>
</svg>
